<mxfile host="app.diagrams.net" modified="2024-01-02T09:48:44.777Z" agent="Mozilla/5.0 (Macintosh; Intel Mac OS X 10_15_7) AppleWebKit/537.36 (KHTML, like Gecko) Chrome/120.0.0.0 Safari/537.36" etag="tO_BlhGNdS59jflyTUCW" version="22.1.16" type="github">
  <diagram name="第 1 页" id="7zKKWYgql4LmyLn-UABv">
    <mxGraphModel dx="954" dy="615" grid="1" gridSize="10" guides="1" tooltips="1" connect="1" arrows="1" fold="1" page="1" pageScale="1" pageWidth="827" pageHeight="1169" math="0" shadow="0">
      <root>
        <mxCell id="0" />
        <mxCell id="1" parent="0" />
        <mxCell id="3KtTvewTF6bU5-9G9vKZ-2" value="" style="shape=image;verticalLabelPosition=bottom;verticalAlign=top;imageAspect=0;image=data:image/png,iVBORw0KGgoAAAANSUhEUgAAAVIAAAG2CAYAAAAtAA57AAAACXBIWXMAAC4jAAAuIwF4pT92AAAE7mlUWHRYTUw6Y29tLmFkb2JlLnhtcAAAAAAAPD94cGFja2V0IGJlZ2luPSLvu78iIGlkPSJXNU0wTXBDZWhpSHpyZVN6TlRjemtjOWQiPz4gPHg6eG1wbWV0YSB4bWxuczp4PSJhZG9iZTpuczptZXRhLyIgeDp4bXB0az0iQWRvYmUgWE1QIENvcmUgOS4xLWMwMDEgNzkuYThkNDc1MywgMjAyMy8wMy8yMy0wODo1NjozNyAgICAgICAgIj4gPHJkZjpSREYgeG1sbnM6cmRmPSJodHRwOi8vd3d3LnczLm9yZy8xOTk5LzAyLzIyLXJkZi1zeW50YXgtbnMjIj4gPHJkZjpEZXNjcmlwdGlvbiByZGY6YWJvdXQ9IiIgeG1sbnM6eG1wPSJodHRwOi8vbnMuYWRvYmUuY29tL3hhcC8xLjAvIiB4bWxuczpkYz0iaHR0cDovL3B1cmwub3JnL2RjL2VsZW1lbnRzLzEuMS8iIHhtbG5zOnhtcE1NPSJodHRwOi8vbnMuYWRvYmUuY29tL3hhcC8xLjAvbW0vIiB4bWxuczpzdEV2dD0iaHR0cDovL25zLmFkb2JlLmNvbS94YXAvMS4wL3NUeXBlL1Jlc291cmNlRXZlbnQjIiB4bWxuczpwaG90b3Nob3A9Imh0dHA6Ly9ucy5hZG9iZS5jb20vcGhvdG9zaG9wLzEuMC8iIHhtcDpDcmVhdG9yVG9vbD0iQWRvYmUgUGhvdG9zaG9wIDI0LjYgKFdpbmRvd3MpIiB4bXA6Q3JlYXRlRGF0ZT0iMjAyMy0xMS0xNlQwMDo0MDoxNSswODowMCIgeG1wOk1ldGFkYXRhRGF0ZT0iMjAyMy0xMS0xNlQwMDo0MDoxNSswODowMCIgeG1wOk1vZGlmeURhdGU9IjIwMjMtMTEtMTZUMDA6NDA6MTUrMDg6MDAiIGRjOmZvcm1hdD0iaW1hZ2UvcG5nIiB4bXBNTTpJbnN0YW5jZUlEPSJ4bXAuaWlkOjI2NmYzNDU1LTU4OWMtNmU0ZS05ZGU1LWJjZjNjNDMzN2UzYyIgeG1wTU06RG9jdW1lbnRJRD0ieG1wLmRpZDoyNjZmMzQ1NS01ODljLTZlNGUtOWRlNS1iY2YzYzQzMzdlM2MiIHhtcE1NOk9yaWdpbmFsRG9jdW1lbnRJRD0ieG1wLmRpZDoyNjZmMzQ1NS01ODljLTZlNGUtOWRlNS1iY2YzYzQzMzdlM2MiIHBob3Rvc2hvcDpDb2xvck1vZGU9IjMiPiA8eG1wTU06SGlzdG9yeT4gPHJkZjpTZXE+IDxyZGY6bGkgc3RFdnQ6YWN0aW9uPSJjcmVhdGVkIiBzdEV2dDppbnN0YW5jZUlEPSJ4bXAuaWlkOjI2NmYzNDU1LTU4OWMtNmU0ZS05ZGU1LWJjZjNjNDMzN2UzYyIgc3RFdnQ6d2hlbj0iMjAyMy0xMS0xNlQwMDo0MDoxNSswODowMCIgc3RFdnQ6c29mdHdhcmVBZ2VudD0iQWRvYmUgUGhvdG9zaG9wIDI0LjYgKFdpbmRvd3MpIi8+IDwvcmRmOlNlcT4gPC94bXBNTTpIaXN0b3J5PiA8L3JkZjpEZXNjcmlwdGlvbj4gPC9yZGY6UkRGPiA8L3g6eG1wbWV0YT4gPD94cGFja2V0IGVuZD0iciI/PickqJ8AADenSURBVHic7d15nBx1mT/wz1M9d0hISIB0VffMJBkSZDAKCRAIYAQ5111FGTwWPFBQQddzlZ+gjgfuigp4siLq/nRFdFQQfy6IQBIgHEo4ghETZjJHV9UkJJCQkElmpque3x9McDJMkqmju2u6P+/XKy/o6n6e75M5Punu6qoSFIGqSiaTeY2qHgtggQBHAmiC6lQFporIQQBSxZiFiMqKr8CLUN0hItsB9AqwDsA6H3js0ksvfbK9vd0v9BBSqMYtLS3TBgYGzhfVcyGyTFVnFmotIqLxiMjzUF0hInfU1NV1bNiw4YWCrBN3Q8uyToPqJQDepKr1cfcnIgpDRHYD+J0CN7mue3esveNqZFnWG6F6laqeEFdPIqJCEOAvhsjVfY5zu4hoDP2isSzrtVC9QVWXRO1FRFRMAvy5SuRDva77WJQ+oXfwLFy4cEoqlfoGVG8C0BhlCCKiErF84JKDp007LG2a9z/33HNDYZqEekaayWRe7fv+r6B6ZJh6IqKkEZH1ELnAcZwng9YGfkZqWdZ7oHobVNNBa4mIEmymAO85eOrUTdt37Aj0Uj9QkJqm+XmoXg+gOkgdEdEkUaXAv0ybNi21Y8eO5RMtMibyIFUVyzS/B9Uvhp+PiGhyUNXPWen0D9rb2yeUkRN6j9SyrOvU9z8WaTIioknGEPme7bofPtDjDvjSPmOaV6jqVfGMRUQ0eShw/LSDD/Z37Nhx3/4et99npJZlna++3xHvaICIvADg7wp0GsA2H9gpIl7c6xBReVNVwwAO8oHpAswDcKSqTo97nZTIO3Ou+4t93b/PIM1ms/O8fP4xANNimuVRMYxfiMjduVzuqTiOJiAiGk1VJZvNHq2qb4Dvv0OB42JqvUMMY7HjOOvHu3PcIG1tba3ZunXrQ3jpbE1ReBC5xTCMr9m2/VTEXkREgWSz2aP9fP4zCrwDEc8wJyJP1jc0nNDZ2Tk49r5xG9dUVX0awIWRFgVWVlVX/7Nt2z/Yvn37s1F6ERGFsX379md3vPjirYfMnNmhvn8UgDkR2s3Oe97QeO+XvuIZ6Zw5c5oGBwf/BtWGMCuJyJAAn7Jd9zth6omICsU0zcsEuFZVa8PUi8juVFVVa19f34bR21/xGamh3buvDRuiADaLYZzCECWiJHJd9/tGKnUygE1h6lW1zsvnrxu7fa9npJlMZqHveU+M3T4RIpITwzjdtu1nwgxIRFQsIzvT7wHQFKa+WmTR6DNG7fWMVH3/SoQL0eeqgTMZokQ0GeRyuS4xjDMBbA5Tn1e9cvTtl0OzsbFxbn54+BlM8LDRUTwjlTrdtu2VYQYiIiqVRtM8Oa+6HEBVwFIVwzhyz8ehXg5NP59/F4KHKCDyJYYoEU1Gfa77gABfCFEqAN6954YBvPQhVlW9KESztfPnz/9qiDoiokQ4YsGCa0RkTdA6Vb1QVQUYeWlvWdaJ6vsPBm0khvEGx3HuCVpHRJQkmUzmdb7nrQhalwJOzfX337/nGekZgVcWWcUQJaJyYNv2SgECv0XpA2cCIy/tRfW0oA0M1W8GrSEiSioVCZ5pIqcBgNHc3FwHkROD1cpzh5vm/wu8KBFRQs2fP/8OAIEOZ1fV4xeZZoORz+fnq2pNwDVvX7169XDAGiKixFqxYkUeIr8LWFa1WfVVhoa4Eqio8r1RIipHgbPNF1lgAFgQtFCqqh4OWkNElHS1tbWBs02BIw34vhmkSEQGlyxZ0hN0MSKipNuwYUMfRAaC1CiQNlRkasC17I6ODl4WhIjKjoioALlANcBUQ4CgQbo94OOJiCYP1WAZpzrVABDo3KMKBHraS0Q0yQTNuAYDwU+bx4vWEVE5C5pxEvxsT0REtBcGKRFRRAxSIqKIGKRERBExSImIImKQEhFFxCAlIoqIQUpEFBGDlIgoIgYpEVFEDFIioogYpEREETFIiYgiYpASEUXEICUiiohBSkQUEYOUiCgiBikRUUQMUiKiiBikREQRMUiJiCJikBIRRcQgJSKKiEFKRBQRg5SIKCIGKRFRRAxSIqKIqko9ACXDwoULp2zfsiXrqR4KkZkecAiAehGpEdUaH/AMYEhFBkV1h6g+J8AWP5XamMvlXBHRUv8diEqFQVph5s6de/Dg4OBiAAuhuhCqRykwZ8vmzYe+/CDVUf+r2HPLH7lvr8T0PGQsa8gyzV6odqrIU4bqGqO6+one3t6/MWCpEjBIy9zcuXMPHhoaeoN63hsgsnT3rl2tiPktHVWtAXAEgCOgeo4PwB8eRsaytlnp9IMicr+K3Ok4zhNxrkuUFAzSMpTJZCx43vk+8Jbdu3adhD3fZy3uk0NVnQ7gXFU9F6r/YZlmvwJ/SAEd8+bPv3fFihX5og5EVCAM0jKxyDQbNopcoKoX+553MgAp9UxjqWoawPs94P3r16/fkjHNX6rITXymSpMdg3SSsyxrPlQ/2q96IVSnlXqeCVOd5QOXQ/VyM51+VAzje9OnT7957dq1Q6UejSgofvxpkrIs60TTNG9T339aVS8DMHlC9JUWq+//ZNvWrT0Z07xiwYIFU0s9EFEQDNJJJpvNLjbT6TvU9x+E6ptQRt9DVU37qv/x4o4d3RnT/MzChQunlHomookom1/CcjdnzpwmyzR/6eXzfwFwdqnnKSRVnemr/ueWzZs7TdO8uL29nT+nlGj8AU24lpaW2oxpfnFocPBpVb2g1PMU2Wyo/ujGH/zgz5ZlLSn1MET7wiBNsGw2e+qugYE1vurnVbW+1POU0CL1/VWmaX6rtbX1oFIPQzQWgzSBmpub60zT/LaXz69Q1fmlnichDKj+29bnn/9rNps9tdTDEI3GIE2YTCazcGhw8FGofgQJ/CxoAjR5+fxyy7KuXrZsGT++R4nAH8QEsSzrPer7NwCoK9aaIuKq6hoBnhaRbh/oNQxjE4DnGnx/m9/QMJTP54dmDg0Zm6uqalW1XlVnquosABkAzVCdp8CrBThKVYsxu6G+/9n169ef2tzc3NbT07OxCGsS7RODNAEWLVpUvdF1v62+/8FCryUiT0H1TwI8UNvQsKqrq+vZidT1vPSfAQBbAbjjPWbZsmVV3evXL/SApaq6DCKnq+rBMY3+SqonDw8NPWaa5vmu6z5YsHWIDoBBWmLNzc3TN/b3/0aB0wq0hC/A/TCMX4rI7bZtOwVaByPHzj828uc7y5Ytq+rs7Fzq+/75UD0fwOy411TVtIjcmzXN9+Zc9xdx9yeaCL5HWkJz5sxpGhocXKWqhQjRXjGMz4thNDn9/cscx7mhkCE6nhUrVuRt217puu5HLv3ABywjlToXIrcCiPVkJapa66n+3EqnPxtnX6KJYpCWiGVZ84cGB+8HcFScfUXkETGMtks/8IG5juN82XEcO87+YbW3t/u2bd/huu5bIDJXRL4JYHuMS4gCV1um+Y0YexJNCIO0BLLZ7NHq+/epajauniLySJXImY7rLnEc59ft7e1+XL3j5rpuznHdT1VVVzcLcDWAF+PqraqftNLp/1JVfuKBioZBWmTNpnmkl8/fA+DwOPqJiCuG8TbHdZf0ue6f4uhZLH19fVud/v6r6hsa5gnws7j6KvCBjGV9N65+RAfCIC2ipqamOcPA3QAOi6FdXoDrDpo69UjHcX4VQ7+S6erqetbp739XqqrqdQDWxtFTVS/LmOY1cfQiOhAGaZFYljUzPzx8l6paMbR71EiljnX6+z+xbt26HTH0S4RcLnff/AULXmuIfEZEIp+X1Ff9d8uyPhnHbET7wyAtgpaWllpV/Z2qtkTtJYbxrRmHHLLUtu2n4pgtaVasWJG3XfcaI5VaKsCGqP3U97+eyWTeGsdsRPvCIC2CgYGBH0F1aZQeIrItJXKe4zgfq4SzyOdyuUdr6+uPFeA3EVuJ+v7Pmkzz2FgGIxoHg7TAMqb5b1D91yg9ROSp6pqaY3Kue1tMY00KGzZseMHp7z9fgI9j5GrQYahq/bDqby3LmhnjeEQv45FNBdRomkvzqt+M1ETk/uqamn/p6enZNnqzqoplWe8V1diPFopDTV3dz7u7u3vj6OX0919vWZYD1f8ZufRzGE2qerOqni0ixb2cKpU9BmmBzJ079+Ddu3b9HFG+xiK/q6mpeXtPT8/u0ZszmcwhGdP8GYBzk5oIQ0NDDwOIJUgBwHGcDsuynoPqbQDCXdNJ9UzLsj4F4OtxzUUE8KV9wezevfsGAE1h60XkJ0uXLn3r2BDNZrOLfc97TIFzIw85yTiOc2+1yDKIbAnbQ4CvmKZ5TIxjETFIC8GyrDaoviNsvQC/vuTSS9/f0dHhjen7T77n3YcIAT3Z9bruY6lU6lyEPBpKVWtE9aeLFi2qjnk0qmAM0pg1NjbOUN//dth6EVleP2XKhWMP8bQs693q+7dV+CVHAAC5XO4vKZG3ishwmHoFjt64ceMVcc9FlYtBGrN8Pv91hDxdnIg8Xt/Q8ObOzs7B0dsz6fRH1fd/Ar6n/bKc695lAO8GEO5tYtUrTdNcEO9UVKkYpDHKZrOLoXpxyPKN1TU153Z2du51RiTTNC/2gevBy468Qs51fyGG8bkwtapaC9XrYx6JKhSDNEae512PcIHni2H869hLZmQymbdA9cZYhitTtm1/FSJ/DFl+diaTqbiddhQ/BmlMLMs6P/TRSyJfchzn3tGbGk1zqfr+zQBSccxXrkREGxoaLhKRcS9/ciC+532jvb2dvwcUCX+AYtDe3m6o738xTK2I3HvppZd+efS25ubm2R7Qoaq18UxY3jo7OzcbqdQ7AHgHfPArveqmm256Z9wzUWVhkMbgphtvfDvCnen+RYi8e/Qe+mXLllUNDQ39SlXT8U1Y/nK53H2GyHVhatX3v8BLO1MUDNIY+KqhrhUkhtE+9lIg69evvxqqp8QzWWU5ZNasdhEJfGkVVW3pWr++rRAzUWVgkEaUyWTOBtAatE6Avx5xxBHfGtPreKjy/JkhrVmzZqcYxsfC1HrAp2IehypIIl/ONJrmUg9YXuRlt9c3NFhjP8N5IOr7oX4BDeCykcsXAwBaW1trtj7//I/BnUuR2Lb9GzOdvhPA2YEKVY/NZDLLbNteUZDB9sM0zbsEWFbsdScjMYwzbNteWeo5xkpkkAIQVS3uIXwifwwaoplM5gjf804PvpT8Mue694/e9sLWrZ9FiGe2NA6Rj0F1LQL+o6S+/yEAKwoy034IUFX0n/dJShL6eWq+tB9hqP46aI3v++8PsZSnwBdGb8hms6YCnw7Ri8bhuu46EQlzMb03zzfNWbEPRGWPQQpARHYjlbozSE1bW1sKqu8JsdgtruuuG73J87x2HkMfr1RV1ZcR8ONQqlqzU+SiAo1EZYxBCkCBlbZt7wpS88iqVachxNVARWSvc2GaprkgwmGltA99fX0bROS3gQt9P/RZu6hyMUgBGKp3BK3JA28LWiMi9ziO8+Re21SvAncwFYbItUFLFDiuqalpTiHGofLFIAVgVFf/Kcjj29raUgKcF3ghkR+Mvtnc3DwbIhcE7kMT4jjOwyLy5IEfubfh4eHzCzEPlS8GqciW3t7ep4OUrFq16gRVPSTgSptnz5592+gN+aGhD0a4BhFNgAI/DFojqjyRCQXCIAXuD3oxNFE9J+gihsivVq9e/fKJiBctWlTtq34waB8KRkRuAZA/4AP3Llq6YMGCcNeFoorEIAUeDFFzZtACUf3l6NubNm06A8DhIdamABzHeQ4i9wSpUdXqHTt2vL5QM1H5qfggFZHVQR6/yDQbFDg24DLP9rnuA6M3qO/z2O4iMVQD7703gJMLMQuVp0oPUq2urn48SMFGkRMQ8IgwAf44+u2DkQuvvSlIDwrPFwn8qQwFwp1blipSIg8RTdXW5ryhoa8WfCHff7Gnp2dbwJoTgy4jwF5ncN+0adNhELlBJJFHu8UilUr1lHqGPVzXzZnp9NMAXhWgbPGiRYuqR7+vXSgC/ByG8VCh1ykHqVSqt9QzjCeRQdrd3d0L4MpSzzEukYXQYNdb80XuG33btm0HSf37lSkB7tMAQaqqNZs2bToSwFMFHAsAYLvujwq9BhVWpb+0D0xVFwZ5vIjkXNfNFWoemiDDWBW4xvMCfa+pcjFIA2htba0BMD9IjQKPFmgcCqCqqirw98EXOboQs1D5YZAG8MILLzQi4OGcBrCmQONQAMcff/x6EQl0mkQB5hZqHiovDNIADN8PfAy2iqwtxCwUTEdHhwfg74GKVHnMPU0IgzQAX7U5aE3K9zcUYBQKQYFA3wsFmgs0CpUZBmkAahiBT5vnp1LdhZiFghPVoN+LmbzmPU0Ef0iC8P2ZQR4uIkO2bT9fqHEoGBXpD1hi/PCHP5xRkGGorDBIgwkUpACeK8gUFFaY70fQ7zlVIAZpMFOCPFhV+Ww0QVJA4O+Hqgb6nlNlYpAGIVIbsGJ3QeagcFQDfz8k+PecKhCDNAAFAp2EWUSGCjULBecbRuDvh2EYPPE2HRCDlGg/VLV8zyxDsWGQBiBAoGc0vIxIshi+H/j7oap8VUEHxCANQjXQIYYA6goyB4UjEvj7kfJ9BikdEIM0mIEgDxYRfgYxQfwQ3w/PMHYUYhYqLwzSIAwj6OcQ+RnEBFHVWUFr6uvrtxZiFiovDNJgAgWpqtY2NjbyWWlCCDA7YIlmMhkGKR0QgzQA8f1ng9bk8/nmAoxCYQQ/m9PmFStWBLuUM1UkBmkAItITtMYwDJ7TMilEggWpiF2gSajMMEgD8EMEqe/7rQUYhQJqa2tLATgyYFkiL7RGycMgDaC+vr4XgBekRgJe44kKY9WqVS2qWh+kRkSCnQiaKhaDNIDOzs5BEekMUqPA4kLNQxNnqIb5PqyLfRAqSwzS4IJeg6kpk8lYBZmEJkxFlgauUeX1tmhCEnlde9M0s6J6UZCa6tram3t6enoKNNI/iKyBaluQEt/3TwFwSyHGCfO1KneGSHfOdX+x10bVU4L0EJHB2en0X13XnXCNZVmvge//U5B1wpBUqs+27f8p5BpzTbNxUPXCQq4RRk1d3c+7u7sT9951IoO0CmjKA1cHqRkeHn4EQE9hJtrLQ0ELBDgLBQrSlGqzF/BrVe58kc+Nvp3JZCzf84JdWll1zerVq4eDleg7AHwm0DohqOfdB6CgQTqcSjVrPp+4n6vh4eEHkcCdgHxpH9D06dMfQcAdTqp6Ns8iVDyq2rHXBt8/O0SbB0LUHBOihsoAgzSgtWvXvgjgiYBlszOZzJICjENjiMhTruvutZNIgfOC9jFEVgZeXJVBWqEYpCGIYdwVouxtsQ9CryDAz0ffHjlE98yAbTypqrovSEEmk2kBcGjAdahMMEhDMHz/jqA16vtvW7ZsWSLfky4XIrJLRW4avc3zvAtUtTpgowf7+voCHWM/skORKhSDNIR5CxY8JCLbApbN7lq//o2FmIdeosDPHcfZ68Qy6vuXBO1jAH8IWiMAg7SCMUhDGDmRxe+C1nnABwswDo0wDOPbo283ptOLACwK0ei3QUsUOD3wOlQ2GKQhiWH8MnCR6pmNjY089r4QRG61bfup0ZvyIp8I3kYet237mSA1jY2NR0G1MehaVD4YpCEdfvjhd0NkS8Ay8fL5TxVkoMrm1QCfHb1hrmk2QvWCoI0UuDnw4p53TtAaKi8M0pBWr149LKo/DVqnqhdms9l5hZipYon8pMd19zrByG7gKgQ/4CRfW1v7s6DLq+qbgtZQeWGQRlBVU3PTgR/1yjI/n/9C7MNUru2pVGqvr2djY+NcAd4TuJPI77u7uzcFKWlqakpDNfBx/FReGKQR9Pb2Pi1A4A9uK3BhJpM5oRAzVRoD+PdcLrfXAfH5fP7awB95AiAi3wta4w0PvxX8Pap4ifxcY6/jrFq8eHGga5A/+uijeZHiH4WpItdC9XUBy0R9/4a2trbjOjo6Ah1uSv8gIstzjvPD0d93y7LeqL4f+KW2iDzlOM49QetOXLr0hg0bNvwgaF0UU6dOVbe/v6Br9PX13R/0d7AYSvV7fiCJDFIRUQCBThhRqi+u4zi/z1jWOlVdEKROVY95aNWqywB8p0CjlbsXjVTqkpGfFQBAJpOp9z0v3NdT5Othykb+ISy7fwzD/A4WQxJDFOBLkshERCHyn2FqFfhyc3Nz0CtbEgAxjItzuVzX6G3qeVcCaA7R7ulLLrnk5wd+GNH4GKQxOOmkk34mIuuD1qnqwcODgz/mmaGCEZFvOo6z1xmeLMtaApFPh+pnGF9ob2/345mOKhGDNAYdHR2eAF8MU6vAOVnLChUAlUhElh8xf/4Vo7c1NjbOUN+/JeQOpidt2/51fBNSJWKQxiTnOL8Q4C9han3VrzSaJj9CcwAi8kRtXd15Y6817+Xz/w2gKUxPBT43+n1WojAYpDEREVWRj4Usr/KAW+ab5qw4ZyonIvJMXX39WRs2bHhh9HbLsj6hqv8Ssuldruv+PpYBqaIxSGPkuu6DEvISEKqa2Qn8fpFpNsQ9VxnoqamtPaOrq+vZ0Rsz6fR56vvXhGkoIruqqqo+FM94VOkYpDGbIvLxEMfgAwBUdclG1V/zvKX/ICJPpaqqlo694Fk2mz1VRW4GkArVF/hiX1/fhliGpIrHII3ZetfdYhjGx8PWK3DOM+vWcU8+AIg8UF1Tc+rYI5cymcxC3/NuV9W6cG3lqZb5878Zz5BEDNKCsG37fyBya9h6BS7KWtZ3KjlMReS/a2pqzujp6dk2entjY2Or73l/VNWDQ/YdNlKp943dYUUUBYO0QETkEhGZ+EXRx/BVL89Y1s2LFi0K/JGeyUxEdhsilziu+96enp7do+8zTfMkL5+/H0D4gxhErsjlcqE+XUG0L3wvrkAcx3nOsqyLoHoXQr6Pp6pv7+/vn9na2vqWkauXvkJVXV2fPzT01UjDJoiq/tpx3cfHbrcs641Q/ZWq1oftLSK3O45zbbQJiV6JQVpAjuPcmzHNK33VUIeQAgBUz9j6/PPLs9nsm8a+VwgAIzthrowyZ9Jl0ulLfN//PqL9vPamqqreE9NIRHvhS/sCs133awIEvgbQGIu9fP6JrGkGvazwpLZw4cIpVjr9f33gRkT8R99Ipa4KemVQoolikBbBbJGLADwasc2hnuqdlmVd3dbWFuqtgskkm80evWXz5r8o8K44+vme901eL4sKhUFaBKtdd6CmtvafAfQe8MH7J+r7n121atXyTCZzRByzJU17e7thmublvuf9GcCrYmx9WH54+F6GKRUCg7RIenp6NkLkLADPHvDBB6J6ivr+U5ZpfimTyYTe+ZI02Wx28Y0/+MEjUP1ulJ1K+7EnTI8qQG+qYAzSInJdd52RSp0hIpHfq1PVWlX9nO95ay3L+qc45iuV5ubm6ZZpft/L5x8BsLjAyx2WHx5ezjClODFIi8y27TUp1TNE5PmYWs5R3/9/lmneY5rmSTH1LIqRnUn/Z3hoqEtVP4Ti/TwyTClWDNIS6OvvX22kUq8DEOiKlfujqqdBdZVlmndnMpmz4+pbCC0tLYdmTLN9y5YtPQp8VVUPKcEYDFOKDYO0RHK53F+NVOoUEek68KMnTlVP9z3vDtM0n7Ys6xNJOjVfNps91Uqnf7ZrYKDPV/0CVEs9G8OUYsEgLSHbtp+ZAiwRkYdib656pPr+N3cCrpVO/8GyrHdlMpmiPvNTVclms4tN0/xPM53e4OXzKxW4MOzJRgqEYUqR8cimElvvuluam5tPGx4cvFGBi+LuP3L5jXPh++cq4Fum+WcB7jKAB+qnTn143bp1O+JczzTNBQCWiurrLNM8C8DhcfYfx7MC3K/AWyP02BOmr+/r6/tbbJNRxWCQJsDIyTneZZrmIwJcF+baQxNkqOoSBZb4AHZs3+5bptkF1TUAnlaRbhHpMQzj2VQqtSWfz7/w/ve/f3DPheEWLVpUvXXr1oZ8Pj9TVWdqPp9Rw5gD1XkKvFqAV6vqdAAoxrU7BFhRVVPzzp6eno0Z07xBgQ9EaMcwpdDEMs27VfX0iVfIA67rnlLAmdBomks9YHkh14idarvT3x/55CGZTOYE9f2fq+q8OMaKiYeX3gZKymn9fAG+etLJJ7ePXFceqioxhCnw0jPc2wC8FiJpVa0Tke0KdIrqX6pEbu113cci/w0AZEzz/Qp8D8n5uiaeGMYZtm2vLOQaVjq9XIFlE328ACuT+oxUCvisrFCuzpjmi7brfjtKE9u2H2ltbX3ttq1bv62q741ruIgSc0iqiNgp4OI+1/1TR0fH6O2qqh/KmKYq8MEISxymwKUAANWR/+ihAOYpcNaw6lVWOv0XSaU+b9v2nRHWge26N1mWVa2+zzCdIEno14k7m2Lkq16fMc33Re2zdu3aFx3XvdhIpc5B9MNKy4UPkW9PnzHjVX2u+6fxHiAiarvuZQL8VyEHUeA43/PusNLpn0W9xpbjODeIYVyO4rwbQgXCII2X+Ko3WpYVy04j27bvnHHIIUcLcK2IDMfRczISkcdTVVUnuK770X2dl3XUY4sSpgCgwIX9qivnzZt3WJQ+DNPJj0EaP0N9//9mTPPDcTRbu3bti05//ychcrSI/CGOnpPIRkPkIyctXXpcLpeb8NmzihmmABbvGhhYzjCtbAzSwhBf9TumaX4+roaO46x3XPeNRiq1DCL3x9U3iUTkOUPkM2mRebbrfnfPDqWAPYoZpkftGhi4l2FauRikhaT6Rcuyrm9vb4/t62zb9krXdU+FyBkicndcfZNARLZCpL2+oWGu7brXrHbdgYj9ihmmrXxmWrkYpAWmvv/RH9544+9aWlqmxdnXdd27Hdc9QwzjGAF+KiK74uxfZE+LYVw2G8i4rvvFzs7O7XE15jNTKgYGaRGo6hsHdu58OJPJtMTd23GcJ5z+/ndX19SYhshHIBLLZxyLYIeI/HeVyCluf/9RjuPcEPUZ6L6U4Jkpw7TCMEiL51Xq+3/OptNnFaJ5T0/PNtt1v+u67iIjlZovhnHVSKgm5hdRRLaJyC1GKvXWmtrawxzXfW+f6z5QpLX3hOmGIizHMK0wDNIiUtUZHnBHxjS/3traWlOodWzbfsZxnKtd111UW1eXFsN4twA/K1KIvExEBgHcJyJfTgGnnrR06SzHdd9h2/Zvx16zvhiOPvroaohki7RcbO+ZQuTDYJgmWlKPbCpn4qt+atvWrac3m+Y7e1z374VcrLu7exOAn478QVNTU9ofHj7eF1kI1Ver6lEQmQPVSB8sB7BRgHUAnoZhPGkYxqO1tbVPdXZ2Du55QG7UkUilsHPnTrPIR8wdNRKmr+/q6gp9iRnXdb9vmiag+r04h6P4JDJIU7W1OW9oKPJx60k3DLy1paXlO3HuXDmQ3t7efgC/G/nzsnnz5h02NDTUqC+dI3QWfP8QAHUqUgvfrxERX0WGVHXQUH1BDWMrgOdExAZg27ad+J1d+Xw+1h1+ExRbmFqWtQXAa2KcbdJJpVKJPNIvkUHa3d3dC+DKUs9RSUZ+yaNfmC/ZCrIzawL27M0/LUqYOo7zKwC/inEuignfI6WKcbjvuwD8Ei0fyw4oSiYGKVWMkY9XrSvhCAzTMsUgpYpilP58BQzTMsQgpcpiGD9F6T9KxDAtMwxSqii2bT8FkdtLPQcYpmWFQUoVp7a29qMA9nte0yJhmJYJBilVnO7u7l4xjItR+pf4AMO0LDBIqSI5jtNhAB8v9RwjGKaTHIOUKpbd3/8tMYxPlHqOEQzTSYxBShXNcZzrGKYUFYOUKl4Sw7SlpeXQUg9CE8cgJULywnRg587lDNPJg0FKNIJhSmExSIlGYZhSGAxSojEYphQUg5RoHAxTCoJBSrQPDFOaKAYp0X4wTGkiGKREB8AwpQNhkBJNQNLCdNfOnfzQfoIwSIkmKElhqsDRDNPkYJASBcAwpfEwSIkCYpjSWIm8rr1pmlkReVep56Dwampq/qe7u7u3kGtk0ul/VcNoDlzo+z4M40bHcZ4Lu7bjONdZ6bQqcF3YHnFR4OiRHVCv7+zs3Byll2VZM+H7l8IwEvkkqxg/V2EkMkirgKa873+l1HNQeENDQw8BKOgPvIpcrL5/WphaUb3Asqw3RArT/v7rLcsS9f1rw/aI0Z4dUKdFCVPHcZ4zTfMF+P53AUiM88VieHh4FQr8cxVGIv/VISo0VX0tVO+2LGtmlD7l+DLfdd3vQ+TDSMalWCYFBilVLIbpvo0KU5oABilVNIbpvo2E6eVxzVXOGKRU8UbC9B6G6SsxTCeGQUoEQFVfwzAdH8P0wBikRCNiDdOEXOqZYVocDFKiUWIL0/7+68vxmakhckVcc5UTBinRGHyZv2+2634NIj+Ma65ywSAlGgdf5u9bQ0PDR0RkTVxzlQMGKdE+8GX++Do7OweNVOp9ALwYR5vUGKRE+8GX+ePL5XKPGiJJODQ2EcQyzbtV9fSJV8gDruueUsCZoKry+te/PlXINaiwli9f7olIQQ8xbGtrS23evLkox4PH9fexLOvjCTk2HwL8tX7KlNDH5pfi97QYP1dWOr1cgWUTfbwAKxN50pKRL1S+1HNQeCKFz7eOjo6ivbSM6++TtLNGRTnRSSl+T4vxcxUGX9oTFZnT3399ue2AqnQMUqISSGKYzjfNWaWeZbJikBKVSNLCdKfqH5qbm+tKPctkxCAlKqGEhenx+aGhb5R6jsmIQUpUYkkKU1/1smw2u7jUc0w2DFKiBEhQmIrneVeVeojJhkFKlBCJCVPVN86ZM+fwUo8xmTBIiRIkIWGaGhoaOrvEM0wqDFKihElCmIrqcaVcf7JhkBIlUKnDVIGmUq09GTFIiRKqxGE6pUTrTkoMUqIEK2GYDpRgzUmLQUqUcCUK094irzepMUiJJoFih6kCjxZrrXLAICWaJIoYpn51dfWdRVinbDBIiSaRYoSpiNzR29vbX8g1yg2DlGiSKXCYKkS+UqDeZYtBSjQJFSxMRX7kOM7DsfctcwxSokkq7jAVkSfSwEfj6ldJGKREk5jT33+9IfIRAJEuCCfAX6tras5Z7br8/GgIDFKiSc523e9C5M0i8nyoBiK3VdfWntLT07Mx5tEqBoOUqAy4rnt7XX39qwS4UUSGJlQk8ncxjDbXdc/r6enZVtgJy1siL8dMRMF1dXU9C+ADc+bM+fzw4OAFCpyhwGugauKl3/XtEOkE8KCI3Gbb9r2FvkZ8pUhkkDaa5tK86opSzxGVAA84/f2vL+QajaZ5cl51eSHXoIkTkfsd1z2tlDN0d3dvAvCdkT8AAFWVsaFZ6mvEZ9PpUzzg3iA1Rir1Btu2VxZqprASGaQABMmdbcJUpOB/B1Uti69VuVDVVKlnGE8in3lWVQny+aA/u6VN/33ge6RERBExSImIImKQEhFFxCAlIoqIQUpEFBGDlIgoIgYpEVFEDFIioogYpEREETFIiYgiSuShhana2py3e/fVpZ4jKgF6Cr1GVV1dn18GX6tyISI9pZ5hskilUn1+Ph/oZzeVSiXyMtFimebdqnr6xCvkAdd1TyngTEREJWOl08sVWDbRxwuwki/tiYgiYpASEUXEICUiiohBSkQUEYOUiCgiBikRUUQMUiKiiBikREQRMUiJiCJikBIRRcQgJSKKiEFKRBQRg5SIKCIGKRFRRAxSIqKIGKRERBExSImIImKQEhFFxCAlIoqIQUpEFBGDlIgoIgYpEVFEDFIioogYpEREETFIiYgiYpASEUXEICUiiohBSkQUEYOUiCgiBikRUUQMUiKiiBikREQRMUiJiCJikBIRRcQgJSKKiEFKRBQRg5SIKCIGKRFRRAxSIqKIGKRERBExSImIImKQEhFFxCAlIoqIQUpEFBGDlIgoIgYpEVFEDFIioogYpEREETFIiYgiYpASEUUUJkgl9imIiJIjcMYFDlIBpgStISKaLDRExoV5Rjo1RA0R0aQgIoEzLnCQqiqDlIjKWeGDFMChi0yzIUQdEVGitbS01Krq7KB1oXY2bRSZH6KOiCjRhoaGWhAiF0N9/ElVF4SpIyJKMt/3jwxTFypIRfWEMHVERInm+6GyLdwH8kVOC1VHRJRgvmqobAv70n7hfNOcFaaWiCiJGhsbZwA4Jkxt2ENEZUD1vJC1RESJk8/n34yQmRj6WHtf5F1ha4mIkkZUQ2da+JOWqJ6czWbnha4nIkqIOXPmNCnwurD1kc7+5HveJ6LUExElweDg4CcQ4YRMUU+jd3FTU1M6Yg8iopKZN2/eYQJcEqVHpCBV1bp8Pv+ZKD2IiEpp965dn1bV+ig9Ip/YWX3/8mw2e3TUPkRExdbU1PQqAP8WtU+YIO0WkV2jbld5nneDqvKEz0Q0qeSHhr6vqtV7bovIbhHpCtoneJCKOAJcs9c21ZOzphk51YmIisU0zcsVWLbXRpFroZoL2ivUS/vDgWvGpraKXJPNZo8L04+IqJiaTPNYAb45ZnPPzJkzvxqmX6ggXe26A4bqewHonm2qWuPl879saWk5NExPIqJisCxrZh74larWjtqsYhgXr1mzZmeYnqF3NuX6+++HyDVjNs8Z2LnzjtbW1oPC9iUiKpSFCxdOge//r6rudTCRANc5jrM8bN9Ie+2XLl16pQArx2xetG3r1lubm5vrovQmIopTS0tL7ZYtW36jwPF73SHywBELFkT6GGekIO3o6PDqGhouEGDD6O2q+oahoaG75s6de3CU/kREcWhpaZm2a+fOO6F61pi7empqatpWrFiRj9I/8udIu7q6npVU6myIbNnrDtVTBnfvvs+yrEzUNYiIwspms+augYGVY/fQi8jzNSLn9PT0bIy6RuQgBQDbtp8RkTeIyHOjt6vqQlV9PJPJnBPHOkREQWTT6bO8fP4JVX3t6O0isrUKOKPHdf8exzqxBCkAOI7zpBjGaQD2TnfVWb7n/cEyzW/w6qNEVAyZTKbeNM2vecAdAMZ+kuhZBU7vdd3H4lovtiAFANu219TW1S0B8Lcxd4mqfrJf9W9Z03xTnGsSEY1mmuY/+573N6h+GmPO6CQi66prapa4rvt4nGvGGqQA0N3d3VtXX38SRG4d5+4mT/U2K51ebprmG+Jem4gql2VZp1mmeS9UbwfQPPZ+Ebm9uqZmSW9vb3fca1fF3RAANmzY8AKAt2TS6Y+qyH+MPbOKAsuguswyzUcg8l/Tp0//9dq1a18sxCxEVL5aW1sP2rZt21ug+iH1/SXjPUZEdkPkSsdxri3UHAUJ0j3s/v5vWZZ1B4CboHrK2PtV9QSonrB169bvmaZ5m2EYd4jIvblczi3kXEQ0eTU1NaW94eHX+8C5W59//s0ApuzrsSLyoAIXu46zrpAzFTRIAcBxnPUATjVN8+0AvgbVxlc8SLUBwDt9z3snAFimuR7Ak1BdB8NYb/j+s57IDsMwdqjqYKFnJqLSEpFa3/enplSnaip1qHreAogsALBweGhowQTqc6L6f3KOc7OI6IEeH1XBg3QP13VvaWlpuXXXrl3vVd//DMZ5D2MPVZ0PYD4AwPfhvbQRvucVY1QiKrE9yecBwJ7fe51QHvZC5Jrqmpof9/T07BYpztk9Y9/ZtD+dnZ2DjuP81/wFC45IiZwH4E4AfjFnIKKy40Pkj0Yq9db5Cxa0uK77/Z6ent3FHKBoz0hHGzkc6zYAt82bN++wwYGBN6vIv+hL76NOK8VMRDSp7BDgfhjG72tqam7t7u7eBAC2bZdkmJIE6WhdXV3PArgRwI1tbW2phx9++Bj1vNf6wEKoHiEilqrOFpGDVLUOEa70R0SThorIbgV2CtCvqg5EnjFUn5KqqseXLFnyeEdHR2Le6yt5kI428oV5dOTPuNra2lLFm4iISuFAIZnLBT6JfUElKkgnIkn/ChERAUXe2UREVI4YpEREETFIiYgiYpASEUXEICUiiohBSkQUEYOUiCgiBikRUUQMUiKiiBikREQRMUiJiCJikBIRRcQgJSKKiEFKRBQRg5SIKCIGKRFRRAxSIqKIGKRERBExSImIImKQEhFFxCAlIoqIQUpEFBGDlIgookl3XXsAaGxsnOEPD5+vImcAeI2qpkWkRlVfEJFOAA+lgFv7XHdVqWclovI3qYK0sbFxhud5X/Dy+UsVqIfqy/fpS/9/mKoeBuCkPPBJyzTXKHCV67q/L9XMRFT+Js1L+0bTPDk/PPy0+v5HVbV+IjWquhCqt1vp9M+am5vrCj0jEVWmSRGklmVd5AH3ADg8TL0CFw4PDq6cb5qzYh6NiCj5Qdpommeo7/9EVWui9FHg+BdVf7No0aLquGYjIgISHqRz5sxp8oBfAkjF1PLUTf3918XUi4gIQMKDdHBw8DpVnRFnT1/1skwmc3ycPYmosiU2SDOZzKuhel4BWov6/ucK0JeIKlRiP/6kqu870GNE5BmI/EFUu1TkRVGd7QNLBDhzf3v2VfXcpqamdG9vb3+8UxNRJUpskEL13P3c+zcjlfqUbdt3jHdnY2PjDD+f/6yv+jGM/3c0hoeHzwbwkxgmJaIKl8iX9nPnzj1YVY8Y906R22Ydeujx+wpRAOjr69tqu+6/Q+QcEXlh3DbA4pjGJaIKl8ggHRoaahr3DpEHZsyY8bY1a9bsnEgf13XvNoALAHivuFO1OcqMRER7JDJIVXXK2G0iMlhbW3vh2rVrh4L0yrnuXRD5/jh3NYQekIholEQGKYCBcbb9uLu7uzdMs/r6+q+IyPAE1iAiCiyRQVpdXf3KwBTpCNuvq6vrWQArx/QLFcpERGMlMkh7enq2iUjX6G3Tp0//S5SeCjw6+rYAq6P0IyLaI5FBCgAK/O/LN0QG1q5d+2KUfobqxlE3fRjGnVH6ERHtkdggFZEfv3xDtT7qyUbUMKa93Bv4o23bTpR+RER7JDZIHcd5QkT2nJBZnuvvnxepoe//43OphvHlSL2IiEZJbJACQKqq6mMAtgPAEPDGsH3a2tpSKnIOAAhwo+M4D8UzIRFRwoO0r69vg5FKvR2AD9XLW1tbQ52T9MEHH7wIqrNE5KH6KVP+LeYxiajCJTpIAcC27TsMkUsBZF7YuvXKoPXz5s07DKpXi8jjNbW153V2dg4WYEwiqmCJD1IAsF33R2IYZ/qqH8qk0/860bqWlpZpu3ftuhXAA7OBk7u7uzcVcEwiqlCTIkgBwHGc5Q1TprSqyFLTND+fyWT2ewE80zSP2bVz508gcp3jum9b7bo8komICiK5p9EbR2dn52YAl7W0tBw6ODBwlmVZ3QBsERk48cQTh9asWdOwe/fuWb7vZ1XVyOVy54uIHqgvEVEUkypI9xgJ1NtGb+vo6ACAHSN/ugFARIo9GhFVoEnz0p6IKKkYpEREETFIiYgiMlR17Hk690uASMe8ExElmYoE23ckkjdEZEegRVQPCrQIEdEkIsDUII9XYIchL+3lDmJWwMcTEU0mM4M8WFR3GKo67lU29+PwlpaWaQd+GBHR5LLINBtU1QpSoyLbDB1zJvqJGBgYODpoDRFR0m0yjKMBBPoAuqHaZQBYF3QxUV0WtIaIKPF8f1ngmlRqnSEifw9ap8BZgRcjIkq4MNlWVVX1dwEAyzTtgO8LaG1d3Zywl0cmIkoay7Iy6vu9CPb5+k1uf//slwpU7w24pgzt3v3+gDVERImlqu9D0IOURO7Fy0WGcU/gVUU+zL33RFQOWltbDxIg8NUzDOAfQVpXV3cHgHyQBqo6fdeuXVcEXZiIKGm2bd36aVU9JGCZl6qu/gMwaje/ZZq/V9VAF5gTkaFq4DU9rht4hxURURJkMpkj1PefUtXagKV3uv395wCj3w8Q+WnQAVS1Zhi4uaWlJegAREQl19raWuN73s0hQhSpUZn5cpBOnz79dyLiBG2mqscMDAx8N2gdEVGpbXv++W8BWByidGOqpubWPTdSe/5n8+bN3sEHHeQpcHaIpscePG2asX3HjhUhaomIis6yrM+p6r+HKhb5Yi6Xu2/Pzb129R8u8kMAz4bp66t+3rKsq0MNRURURJZpfkl9/0thakXkuVmzZt0weltq9I3+HTuGpx188E6o/lOo6VRPmTpt2vw5c+b8cdOmTYHOc0pEVGiLTLPBOOigHynwkbA9DJErnunsfGCvbWMfdMkll/xAgL+EXQSq79yyZcujlmWdGLoHEVHMMpnMCf2qjypwUdgeIvL4iUuXfv8V28d7cDabXezl8w9jzDPWgNQQ+Ul1be2XeCgpEZXKXNNs3A18Di8duRTl0sK+kUqdZNv2I2Pv2GdTy7KuVN//SoRF98gLcAsM48e2ba/gdeaJqNBUVbLZ7OvU8y6GyNtVNfIlkgyRL9qu2z7effsM0vb2duPGG2+8A6pnRh1glI0QuUdE7jcM42kAnTNmzHhhzZo1O2Ncg4gqyCLTbHg2lZqOfH6ebxhHwfdPhsjpqpqOaw0RufeSSy89o7293R/3/v0Vt7S0HLpr586HFZgb10D7oCN/iIiCEER7uT4RvbV1dSd0d3dv2t8Q+5XNZud5+fyDAA6LdTQioqQT2SIiSx3HWb+/hx3wlFG5XK6rWuQcEQl6bScioslseyqVOvdAIQpM8Nx7va77mBjGqSLSH302IqLE2wSRZblcbkIfBZ3wSUxt215TVV29VESeCT8bEVGyiUhXqqpqqeu6j0+0JtDZoHt7e7tr6+qOE+C3wccjIko4kd+lqqqOy+Vyga6uHHpvV8Y0P6LANapaF7YHEVESiMggVK9w+vuvD1Mf+sil7Tt2/Hn69Om3wPePAHBE2D5ERCUlcpdhGP/suO7/hm4RxxyZdPo8H/gygNY4+hERFcHTYhifdxzn11EbBbti3j7Y/f23Oq77aiOVeiuA1XH0JCIqBBF5XAyj7dIPfODoOEIUKNARAaZpHiMi71Lffyf4QX4iKr3NYhg3V6n+tNd1H4u7eUEPrWpra0s9/PDDx6rnne4DpwlwrKrOLOSaREQi8jyAx6B6r6RS95544omPdnR0eAVbr1CN98WyrJkp1SN9oElFpqrqVAM4SFWjnLKPiCqQiHg+sFNEdojqdgPorQPWrXfdLcWc4/8DVsYzWCRMAcgAAAAASUVORK5CYII=" parent="1" vertex="1">
          <mxGeometry x="240" y="200" width="100" height="130" as="geometry" />
        </mxCell>
        <mxCell id="3KtTvewTF6bU5-9G9vKZ-3" value="" style="shape=image;verticalLabelPosition=bottom;verticalAlign=top;imageAspect=0;image=data:image/png,iVBORw0KGgoAAAANSUhEUgAAAVMAAAG3CAYAAAAJnrbgAAAACXBIWXMAAC4jAAAuIwF4pT92AAAE7mlUWHRYTUw6Y29tLmFkb2JlLnhtcAAAAAAAPD94cGFja2V0IGJlZ2luPSLvu78iIGlkPSJXNU0wTXBDZWhpSHpyZVN6TlRjemtjOWQiPz4gPHg6eG1wbWV0YSB4bWxuczp4PSJhZG9iZTpuczptZXRhLyIgeDp4bXB0az0iQWRvYmUgWE1QIENvcmUgOS4xLWMwMDEgNzkuYThkNDc1MywgMjAyMy8wMy8yMy0wODo1NjozNyAgICAgICAgIj4gPHJkZjpSREYgeG1sbnM6cmRmPSJodHRwOi8vd3d3LnczLm9yZy8xOTk5LzAyLzIyLXJkZi1zeW50YXgtbnMjIj4gPHJkZjpEZXNjcmlwdGlvbiByZGY6YWJvdXQ9IiIgeG1sbnM6eG1wPSJodHRwOi8vbnMuYWRvYmUuY29tL3hhcC8xLjAvIiB4bWxuczpkYz0iaHR0cDovL3B1cmwub3JnL2RjL2VsZW1lbnRzLzEuMS8iIHhtbG5zOnhtcE1NPSJodHRwOi8vbnMuYWRvYmUuY29tL3hhcC8xLjAvbW0vIiB4bWxuczpzdEV2dD0iaHR0cDovL25zLmFkb2JlLmNvbS94YXAvMS4wL3NUeXBlL1Jlc291cmNlRXZlbnQjIiB4bWxuczpwaG90b3Nob3A9Imh0dHA6Ly9ucy5hZG9iZS5jb20vcGhvdG9zaG9wLzEuMC8iIHhtcDpDcmVhdG9yVG9vbD0iQWRvYmUgUGhvdG9zaG9wIDI0LjYgKFdpbmRvd3MpIiB4bXA6Q3JlYXRlRGF0ZT0iMjAyMy0xMS0xNlQwMDowMTo0NyswODowMCIgeG1wOk1ldGFkYXRhRGF0ZT0iMjAyMy0xMS0xNlQwMDowMTo0NyswODowMCIgeG1wOk1vZGlmeURhdGU9IjIwMjMtMTEtMTZUMDA6MDE6NDcrMDg6MDAiIGRjOmZvcm1hdD0iaW1hZ2UvcG5nIiB4bXBNTTpJbnN0YW5jZUlEPSJ4bXAuaWlkOjJkY2IwNzJhLTJmZjEtMmE0Yy04Yjg2LTNkNjZiYWQzYjZhMiIgeG1wTU06RG9jdW1lbnRJRD0ieG1wLmRpZDoyZGNiMDcyYS0yZmYxLTJhNGMtOGI4Ni0zZDY2YmFkM2I2YTIiIHhtcE1NOk9yaWdpbmFsRG9jdW1lbnRJRD0ieG1wLmRpZDoyZGNiMDcyYS0yZmYxLTJhNGMtOGI4Ni0zZDY2YmFkM2I2YTIiIHBob3Rvc2hvcDpDb2xvck1vZGU9IjMiPiA8eG1wTU06SGlzdG9yeT4gPHJkZjpTZXE+IDxyZGY6bGkgc3RFdnQ6YWN0aW9uPSJjcmVhdGVkIiBzdEV2dDppbnN0YW5jZUlEPSJ4bXAuaWlkOjJkY2IwNzJhLTJmZjEtMmE0Yy04Yjg2LTNkNjZiYWQzYjZhMiIgc3RFdnQ6d2hlbj0iMjAyMy0xMS0xNlQwMDowMTo0NyswODowMCIgc3RFdnQ6c29mdHdhcmVBZ2VudD0iQWRvYmUgUGhvdG9zaG9wIDI0LjYgKFdpbmRvd3MpIi8+IDwvcmRmOlNlcT4gPC94bXBNTTpIaXN0b3J5PiA8L3JkZjpEZXNjcmlwdGlvbj4gPC9yZGY6UkRGPiA8L3g6eG1wbWV0YT4gPD94cGFja2V0IGVuZD0iciI/PsqQcCMAADDoSURBVHic7d15fBxnfT/wz3d2V4dj2c6dnVmtZVvEgIkJiCtxDhdy0SS2EiIopRc0dlJaSstRaLlECy209OAmCeZI6PGrSbzK6RbiKIXcGIKJk9iWYx27K+dynCg6d+f5/v7QKpEd+ZjdZzUj6fN+vfx6SbvzPM9XTvzRzHxnZgUhanHdeftqaxsKhUKD4zg1YdZCRDOPiKiIDBcKhYFFixYNbN++fSy0WqZjkeXLlzcMDg6eraqrYMyrFVguIs2qWjsd6xPR3CAi+wHsgOoOEdkOx+k844wztm7cuNGv+trVmnjx4sXJQqHwPgEuV9U3A4hXay0iokMRkecV6ATwnzU1NR3d3d0jVVnH9oSe512sqh+C6nkAYrbnJyIqVylY/7sG+JfufP5xq3PbmERVpbGx8XI15lOq+gYbcxIRVZERkR+L43wxm81uszFhxWGaSqVOM8Z8C6pn2SiIiGgaGRH5TqKm5lPd3d37K5mo7MPwFStW1NQmEl8yxnwfQFMlRRARhUQAvNn3/Q8sWLiwd2BgYHslEwWWTqeXFguF/wbQUu7CRERRI8C1idraD5fTpAocpp7nXQzVf1fVhUHHEhFFnYj8uhZY80Q+3xtknBNkY8/z/kiNyTBIiWi2UtXXjwL3pNPpFUHGHXWYep73UR0/P8rrRYloVlPVlF8s/iyVSr31aMcc1WF+KplcZ4Bryy+NiGjmEZF9sXj87N7e3kePuO2RNkglk5cZYCN4AT4RzUEiklXgzHw+33fY7Q73ZmNj4+uM7z+oqvUWa1MBtqvIrwHsFJGnxJgBdZyCxTWIaO6oF9UGAzQCWC7AW1Q1aXUFkV/OmzfvzK6urtFDbnKoN1auXHnMM08//RCA11goxUDkThG5ob6+fnNXV9fTFuYkIppSk+u+uqB6mYr8AVRfbWNOR+Sb2Xz+zw71/iHD1HPd76nq+ytcvygiN4jj/EM2m91V4VxERIGlUqmL1JjPqOqZlc7lAJdn+/s3TfXelGGaSqVWG9+/q6JVRe5xHOeDtu57JSKqRKPrvtdX/RcAp5Q7h4jk5zc0vHrHjh0DB7/3ikujWlpaEsb3v1XuYgB8iHxu/fr15zBIiSgq+vL5/5wvchqAzeXOoaruiy+88Pmp3nvFnqmXTP6FAv9a1koiQ47jtGWz2dvLGk9EVGWqKinP+ydV/WiZUxQh8rp8Pr9j8osH7Jk2NzfXQuSvylzgRRE5j0FKRFEmIprL5z8mjvPpMqeIC/DXB794QJgODw9/oJxLCkSkEBe5PJfL3VdmcURE0yqXy31RyjwKV9X3NTU1NU1+zTloi4+UM7Gofrw3n/9JOWOJiMKy7qqrPiYiPy1jaLxQKHx48gsvnTNNu+6qourPg84oIrfk8vk1ZRRDRBS6ZcuWnTQ8NPQIgBMDDn3q1OXLvc7OziIwac/UV/2DMuoYrAUOeRErEVHU7d69+ylxnHJ6RSft2rXroolvHABob293INIWdCZH5CtBn/lHRBQ12Wz2hxD5ZeCBxrxn4ksHADZs2PBGVT024DQDTjz+1cCLExFFjIio4zhfLGPgOya+dABAff/tZSx+Q29v73OBFyciiqC+vr5NEAl0pK2qySbXfTUwEaaq5wZdWBzn+qBjiIiiSkRURH4UdFxB5FxgIkyB1wYcvzebzT4QdFEioigTkY6gY1T1tQDgNDU11QFIB1yxsoegEBFF0BlnnLFVRJ4POGz8ML9YLL4KAT9YT0R+EXAxIqLI27hxow/VhwMNUj0VABxVDXqhKgDsOPImREQzUtB8OxEAHEe1oYzFcmWMISKKPBUJmm/HtLe3O446TuAwdRznFQ9GJSKaDUQkcL796Ec/mu/A98v5sLzhMsYQEc0EgfPN9/36QI0nIiKaGsOUiMgChikRkQUMUyIiCximREQWMEyJiCxgmBIRWcAwJSKygGFKRGQBw5SIyAKGKRGRBQxTIiILGKZERBYwTImILGCYEhFZwDAlIrKAYUpEZAHDlIjIAoYpEZEFDFMiIgsYpkREFjBMiYgsYJgSEVnAMCUisoBhSkRkAcOUiMgChikRkQUMUyIiCximREQWxMMugGgqS5cuXVgoFI4RkTrf9+OJRGIMwEixWHw+m80Oh10f0cEYphSqVCrVDGNWAzhdgdeq6lIROWVkeLh28nZjo6Mvfe0mky+ISD+AHQo86qg+iFjs7mw2u296qyd6GcOUplVbW1vs/vvvX2WKxVYFLje+v/jgbVT1SNMsUNUFAJYDWGMAwPfVc90HBbhJRTK5XG6n/eqJDo1hSlXX4rrz+oHzBGi995571qjq8VVYRlT1rQq8Fapf9lx3B0RuEpFMX1/fQyJyxIQmqgTDlKriVNc9YVDkt1W1dS9wEVTrpzPNVHU5VP9agb9OeV6/57oZB8gsOPbYzu3bt49NYyk0RzBMyZrFixcv8QuFSxVofVH1HKjGACDsXUJVTQL4Ex/4k+f27RtwXfdWEcnU19dv7urqeiHk8miWYJhSRTzPe72qtgrQWhgbOz3seo5CA1Tfq6rvHR4aGvOSyTsFyEg8fmtfX18+7OJo5mKYUiBtbW2x++677yxVbVVjLlNjFgPh732WQ1VrALxTgXeiWFTPde8XoMMAmXw+vyPs+mhmYZjSEbW47ryngPPNyw2k48KuqQpEVc9Q4AwAX/Jcd6cCNzmOk+nr63uQDSw6EoYpTanUQLq41EC6UFXrw65pOqnqqQA+aXz/k57r7vWSyfEG1nHH3cUGFk2FYUovWbx48RJ/bGxNqYF0dlQaSBFwigJX+8DVz+3bN+C57m0KZOrq6jY/8cQTz4ddHEUDw3SO8zzvdFFt1fEG0uvDrmcGaFDV3wHwO6MjIwU3mbxTHCfjOM4tbGDNbQzTOWb16tXxrq6u8QaS6mVqTJp7nuVR1QSAi9SYi3xjvu257gMCdMSBTHc+/3jY9dH0YpjOAS2uO+9J1QsVuGzXzp0XR7iBNCgi9yuwXUS6xZinAAyp4xREpNYYs0BUTxGRZgOcDtXTEZ0nn4mqvk2Bt40B/+C57i4BMiqyKZvN3s8G1uzHMJ2lmpubTxweHn65gQTUAQCOfN/7tBKRfgVuFZGORYsW/SRIc8fzvOMnTlEAeEeUmmSq+ioFPg7Vj5caWB0Si2Xq6uru6urqGj3yDDTTMExnkXQ6vdQvFNYAaB0aHDwbpb22aMUnICK7BMgYIJPN5e6b2GvL5XKB5snlcs8C2ABgQ4vrznsyFnun+n4rRN5Zpfv/y3WKAlep7181NDg44Lnu7aUG1h1sYM0eDNMZznXdNzhAqwKtxUJhZdj1HIIK8AsAmYTITZPPJ4qIlQW25vNDAG4EcGNbW1vs3nvvPVdVW6F6KYAmK4vY0aCq7wHwntGRkYLrultEJCMit2Sz2WC/TShSJJVMrjPAtUEGxeJxj53LcKxevTq+a9eus1W1FUArVNNh1zQVERlT4G4AmUQisamnp6c/rFoWu+4bi+OnAlpV9bSw6jgCFZEHodoRr6nJ9PT0PBZ2QXOV53lXqzHfDjKmtq7uFO6ZzgArV648Zt/TT1+gQOuunTsvVdVjw67pEF4Qkf8RIFM3b96tUXmISE8+/0sAvwTw2aampqZCoXB5aa/1TACxkMubIKr6VgBvLYyN/b3nursU2CQimXXr1j3Q3t5uwi6QDo97phHV3Nx84tDQ0CUyvkd1garWhV3TVESkH6q3SCzWsXDhwp/OpLuDPM87XlXXlv6Oz4tSA+sgTwow0cDawgZWdXHPdBZIp9NLfd9fq8a0Dg0OngXAiVrzCABEZKcCGRHJTL7sJ5vNhl1aIKUG1vcAfK/UwLqo1MD67Yg1sE5WYL36/vpSA+sOB8gk6upuZwMrOhimIZt8Pq9YKET3fB7wEMavm7wpN+mJSrYaSGErNbBuAnBTqYF1TulUwBpEr4H1bh94txlvYN1VamDdzAZWuHiYP81KDaRzJp4BqqqNYdc0lVIDqVNEMvF4PBNmAylsk6+YUNUoXzHxEICOWCKR6e3tfTTsgmYqHuZH2MqVK4/Zt2/fher7rbt27rxkooEUwUP4F0RkswNkaufNuy0qDaSw5fP5XwH4FYDPlRpYl6kxrQBWIUoNLOAtAN5SLBS+OHEHlgEy69evv58NrOrjnmmVlBpIl5aaG+dHuIGUn9RAunMmNZDCVmpgrZHxvdbzoDov7JoO4UmI3Ow4Tqauru5ONrAOj3umEdDY2LjMGLNWVVuHBgdXIboNpB2TGkgPzNQGUthKDazvA/h+KpWqh+9fpEArxp8DG6kGFlTXGd9fNzQ4+KLnuncIkInX1Nze3d29P+ziZguGaYXSyWSLX2og+cXi68Ku5xBURB4sHfZtmo0NpLBls9lhAJsAbCp9tMvZpY92WYtoNbDmq2qbAm2FsbGC67qdGP/FenMul+Nv0wrwMD+gUgPp3FIDaW3EG0h3iUgmkUhkuru794Zd01w1+ZmxqhrVZ8aO3/LrOB2xWCzT29u7PeyCwsLD/CpSVUm77gUGeF+UG0gi8jyAzRC5af78+Xfs2LFjIOyaCMjlcg8DeBhA+5IlSxYXRkbGgxU4G9FqYL0Zxry5aMwXPNftUuDHiUTiet7aenS4Z3oEja77XgN8TlWXh13LVEoNpJsdkU0nJZN3bd26tRB2TXR0PM87HsAlqnoZgPOj2sAS4HY4zt/kcrlfh13LdOCeqWVNTU1NhdHR7/uqq8OuZQqPQaTDcZxNfX19D000kPryc+L326xRamD9EMAPU6lUvRhzoRnfY70YqieEXd8EBX4bxlzkJZP/Vn/MMX/DqwGmxjCdQtp1VxXGxjoUiEpHVkXkgYknt+dyuZ0Tb7CBNDuUGlgZAJlSA+usSQ2sJeFWB2D8ypSPDA8Nve1U1127M59/JuyCooZhehDP867wVX+kqrVh1iEiY1C9E47TkUgkOthAmjs2btzoY/zxhXcD+EvP814/qeH5hjBrU9UzB0XuS6fTF/b29j4RZi1RwzCdJJVKrVZj/qP0QWnTrtRAukOBzPyGhtvZQCIAKJ2r/DWAz0ehgaWqzX6xuDmVSr0tm83um+71o4phWuJ53qlqzE3THaQikgNws6PacVIyuYUNJDqcPXv29AD4KoCvplKp41T1UlVdC+DC6Wxgqeqr1Pc3tbS0nMf/Z8cxTAG0t7c711177Q+n8aHLj4njZEQkc0ADqX/OPkuEylDaK5zcwLqg1MC6ZJoaWOfs3bv3rwB8cRrWijyGKYDrrrvuKlV9WxWXUBG5v9RAyrCBRLaVGlgdADra2tpi999//ypTLE58cmv1Gliqn06lUv8vm812VW2NGWLOh2lzc/OC4aGhv7c9r4iMQnWLjD/Et2PPnj1P2l6DaCqlBtb/lf58JJVKrTTGTDzy0WoDS1Xr1JivYDy057Q5H6YjQ0NXq+oiG3OJyPMK3C4iGd6BRFGRzWa3AdgG4G+Xum567OVns54NGxmguiadTr92rj9Ddc6HqQLrKxlfaiB1OEAH70CiqHsin+8F8DUAXys1sC4pfdJtJQ0s8QuFKwF8xFadM9GcDlPP805XY5aVNVjk3x3H+RrvQKKZqtTAuh7A9S89QlDkM2WdChC5AnM8TJ2wCwiTqp5XzjgHuCqfz/9eNpt9cCJIiWaybDY7nO3v33RKMvlWGf8srEBUtdHzvFOrUdtMMafDVIA3BR8kX8/29wd6MAzRTLF169ZCorb2fRB5POhYMebN1ahpppjTYaqqzQGHvFhTU/PZqhRDFBHd3d0jjuN8Kug4I1LeKbNZYk6HKYDjgmwsInfxYx5oLli4cOGtIhLo88BEJNC/p9lmToepiAR6mIkCfNgIzQnbt28fU9XnAg0yJtSHA4VtTocpER1W0ObqnL6dj2FKRGQBw5SIyAKGKRGRBQxTIiILGKZERBYwTImILGCYEhFZwDAlIrKAYUpEZAHDlIjIAoYpEZEFDFMiIgsYpkREFjBMiYgsmNMfqBdF6XT6WABuNdcQkX09PT39QcZ4nndqLBZLVKumcsyWn6McS5cu3dHZ2VkMuw56GcM0Ykyh0GaAa6q5hgDXArgq0CDVzmKhkKxOReUp5+dQY+4uGnNKlUqaNt3d3UnwYeWRwsN8IiILGKZERBYwTImILGCYEhFZwDAlIrKAYUpEZAHDlIjIAoYpEZEFDFMiIgsYpkREFjBMiYgs4L35EeMkEj9V3393NdeIq+4OPEhkvYjUV6GcspXzc4jjrAMQqZ+jTPvDLoAOxDCNmN7e3icAPBF2HQfL5XK3hl2DDbPl56Do4WE+EZEFDFMiIgsYpkREFjBMiYgsYJgSEVnAMCUisoBhSkRkAcOUiMgChikRkQUMUyIiCximREQWMEyJiCxgmBIRWcAwJSKygGFKRGQBn2cahOo6N5lcF3YZRBQ93DMlIrKAYUpEZAHDlIjIAp4zDUBENsbi8faw6yCaDsVi8W6onhB2HTMFwzQABfb39vY+GnYdRNPBTSaLYdcwk/Awn4jIAoYpEZEFDFMiIgsYpkREFjBMiYgsYJgSEVnAMCUisoBhSkRkAcOUiMgChikRkQUMUyIiCximREQWMEyJiCxgmBIRWcBH8EVMOp0+FoAbdh2z1dKlS3d0dnYe9aPlovrfI+jPQdXHMI0YUyi0GeCasOuYrbq7u5MA9h7t9r7vv1uN+U4VSypL0J+Dqo+H+UREFjBMiYgsYJgSEVnAMCUisoBhSkRkAcOUiMgChikRkQUMUyIiCximREQWMEyJiCxgmBIRWcB78yMmVlPzEy0W28KuYxbbH2TjWCz2Ex+I4n+P/WEXQAdimEZMT0/PHgB7wq6DxvX29j4B4Imw66Do42E+EZEFDFMiIgsYpkREFjBMiYgsYJgSEVnAMCUisoBhSkRkAcOUiMgChikRkQUMUyIiCximREQWMEyJiCxgmBIRWcAwJSKygI/gC0hVJewaiKaD57phlzCjMEyDUF3nue66sMsgoujhYT4RkQUMUyIiCximREQW8JxpACKyMZ5IfC7sOoimQ6FQ+D+onhB2HTMFwzQABfb39PQ8FnYdRNPBTSaLYdcwk/Awn4jIAoYpEZEFDFMiIgsYpkREFjBMiYgsYJgSEVnAMCUisoBhSkRkAcOUiMgChikRkQUMUyIiCximREQWMEyJiCxgmBIRWcBH8EVMOp0+VlW9sOs42LJlyx7v7Ow86keylfNzTMcas0XQvyuqPoZpxJhCoc0A14Rdx8H27NnjAug/2u3L+TmCruH7/rvVmO8EWWO26O7uTgLYG3Yd9DIe5hMRWcAwJSKygGFKRGQBw5SIyAKGKRGRBQxTIiILGKZERBYwTImILGCYEhFZwDAlIrKAYUpEZAHvzY+YWE3NT7RYbAu7joOJyHNBti/n5wi6Rjwe/99iBP+upkM8Hg/0d0XVxzCNmJ6enj0A9oRdR6Wm4+eYLX9XNDvwMJ+IyAKGKRGRBQxTIiILGKZERBYwTImILGCYEhFZwDAlIrKAYUpEZAHDlIjIAoYpEZEFDFMiIgsYpkREFjBMiYgsYJgSEVnAMCUismBOh6mqFoJsL8CiKpVCFCnt7e2OiCwMMkZFxqpVz0wwp8NURPYH2V6B32pubq6tUjlEkXHdddedq6r1QcYIsL9K5cwIczpMNehT2lVPGBka+ovqVEMUDaoqqvq3gcfN8U89mNNhKiK/DDpGgb91Xfe8atRDFAWNnvePUD0r6Lhy/j3NJnM6TGOqdwUdo6o1Atzqed6nUqnUcdWoiygMixcvfo2XTG40qh8LOlZEnj3zzDMfqUZdM8WcDtO3rlp1H4Ang45T1Vo15gtqzF43mbzDdd0PplIprwolElWV53mne677t57rPlwYG3tUgSvKmUeAjo0bN/q265tJ5vSnk27cuNF3XfcHUP1EOeNVNQHgIqheZHz/G57rPihAxonHb+7t7X3UcrlEFVu9enV8165d5wBYA9XL1ZhGG/MaYIONeWayOb1nCgCxWOxrIjJqYSpR1bca1X8oFgrbPdfd6brulzzPe1t7e/uc/3um8KxcufKYRtdt9Vz3B7t27nxKjblTjfmwqloJUojck8/n77Uy1ww2p/dMAaCvry/vJZP/BODTNudV1VcB+ISqfuLaa6550ksmMxKLZerq6u7q6uqyEd5Eh9Tc3Hzi8PDwxara+uwzz1yoqnVVWso4jvPRKs09o8z5MAWARG3tFwtjY+8pBWA1nKzAVer7Vw0NDr7oue5tCmRqamo2d3d376/SmjTHNDY2LjPF4qUAWocGB89G6chTq7imiHwnm80+UMUlZgyGKYDu7u6RtOu+3xfZoqo1VV5uvqq+B8B7CmNjBdd1O0XkJgC35nK5bJXXplnGdd03iOrlEFnjF4srp3NtEdlRP2/eX0/nmlHGMC3pzefv8TzvSqheP11rlhpY56vq+QC+5SWTDwHIxGtqMj09PY9NVx00c5QaSGeraqsAl6lqowKAVnP/cwoizzix2MVdXV0vTO/C0cXGyCS5XO4GR+STIS0vCrxFgb8vjI096rnurpTr/pPneWewgTW3rVy58phUMnmZl0zeUGogbYHqn1trIAUkIvtFZE1fX9/uMNaPKkklk+sMcG2QQbF43Ovr68tXq6iweZ73+1D97jQc8h+tJwXoKDWwtrCBNfstW7bspOHh4YsFaAVwQRUbSEF1J2pqfns2Hzl5nne1GvPtIGNq6+pO4WH+FHK53A1p132iCNwAYEnY9WC8gbVefX/90ODgi14yudkRuSlWU3MHG1izR2Nj4zJjzBpVvXx4aOhMAM40H7wflgC3182b9/7du3c/FXYtUcQwPYTefP6elStXnvbsM898QlX/AkBD2DWVzFfgCl/1Cn90tOi67hYRyajqrfl8vi/s4iiYdDLZ4ousheplfrH4urDrmYqIdEHkU7lc7r/DriXKeC7uMLZt2zaYy+c/W1NbmxbgLwFsDbumg8SheoEa8y2o9rrJ5ENeMvk36XR6RdiF0dRWr14d9zzvHa7rft1z3b4i8AtV/YwCkQpSERkVkZudWOxdZ65a9WoG6ZHxnGlAS5YsWTw2MnIZgFYFViGie/ci0iXAJgNk1q9ff397e7sJu6a5asWKFfOff/75C9T3WyFyqaouCrumqYjI8wA2K5BpaGi4bceOHQNh1xSGcs+ZMkwrkEqljlPVNaraCuB8qM4Lu6ZDeAoiHY7jZOLx+Jbu7u6RsAua7UoNpEtKDaTzI9RAOoCI5KB6q8RimZNPPvnOrVu3Bvr0idmIDagQZLPZfQB+AOAHqVSqXoy50IzvsV4M1RNCLm+yk6C6zvj+ujHff9Fz3Ttk/HrW29nAsieVSjVP/HIdHhpahYg1kCaIyA4FMiKSyWazD4iIAkA2y3tGKsEwtSSbzQ4DyADItLW1xe67776zVbUVxlyqwNKQy5tsvqq2KdA2Nt7Augvj/7Bu5h1YwaWTyRZ/fO+z1fh+pM57TmJE5EEBOuA4N2az2V0Tb4hImHXNKjzMnwae550uqq0KtKrq68Ou5zB+IY6TicVimd7e3u1hFxNFLS0tib17955TugOpVVVTYdc0FREZVdW7xHEyNTU1mT179gR+bu9cxcP8CMvlcg8DeBhA+1LXTY+pXqbjpwPOQrSODt6kxrypaMwXPNfdLcAmB8h8YP36++ZyA6vUQLpQfb91b3//JRMNpKgdwpcaSHcokJnf0HD7XG0ghYV7piEqNbAuVdVWjN+ff0zYNR3CUxC5WUQyiUTizrnQwFq2bNlJo8PDl+rLDaRIfiptqYF0iwNkTnLdLWwgVY57pjNQqYH1QwA/bGpqqvPHxsYbWKoXAzgx5PImOwmqV6rqlWOjo4NeMnmHABknkbi9t7f3ubCLs6XUQFpbaiCdiahehy3yOICM4ziZvr6+BycaSH39/SEXNrcxTCOitLfXAaCjvb3d+e53vzvRwFoTsQbWMQpcocAVplAoeq7bqeONt5tn2h1YqirpdLrFFIutOt5AiurNDkZEHig1kG5iAymaeJg/A3ie9/pJDY/Tw67nMLaK40zsMUXykypbWloS/f395zrj56zXRrmBBNUtAmQSdXUdbCBNHx7mz2K5XO7XAH4N4PNLXTc9Nh4Erap6NqJ1dNGixrT4xvyd57q7AWRi4w2se8NsYK1YsWL+/v37L1LV1r39/RdDdVEUu2kisl+BO0Qks2jRotu3b9/+Ytg10dHjnukMlk6nj/V9f6KBdQGi28B6elID66fT0cBasmTJyYXR0YkG0nkRbiBlAYw3kJLJu9hACh/3TOegUvPnegDXNzU11Y2NjV1QOhVwCaLVwDoRqn+sqn9camBtllgs4zjObTYbWKlU6lXGmLUAWkdHRs5AVBtIwGPiOBkRyfT19T30UgMpz/2TmYxhOkuU9vZuBnBze3u7s2HDhrNMsdgKkTWquizs+iY5RoF3qe+/y/h+0XPduwXIGKAjaAOr1EB6kzGmVY1pNb7/2moVXSEjIvdPaiB1TbzBBtLswcP8OSCVSp2mqq06vtfWEnY9hyIivwHwcwEeg2pWgGcQjw8bY4oiUqOqDap6oqguUZHTBFitqsmw656KiIwC+KkAmdr6+pv5QOWZg4f5dEjZbPY3AH4D4O9c1210Xm5gnYMIHZ2o6mkATjvgzqJicfy9yduNbxzFO5D2K3B7qYF0BxtIc0tk/iHR9CgdSn8dwNdLDaxLYEyrAhciug2syCo1kG6OAZkTk8nOiQZSLpcLuTKabgzTOazU/LkBwA2lBtb5DtBqVC9FtBpYUfPopOtpH5p4sZcNpDmNYUoAXmpg3QLglvb2dmfDNdesMkArRNZGrIEVBgOR+wB0OI6zaXIDiWgCw5ReoXSB/c9Kfz76UgNr/HrWN4Zc3rQQkREAd7KBREeLYUpHNEUDa22pgXUuZtH/Q6UG0m2lBtJmNpAoiFnzD4GmR6mB9Q0A30in08caYy5W329V4CLMwAaWiGQF6DBA5lWnntrZ2dlZBNhAouAYplS2UgPrRwB+1NTUVFcoFM4rnQq4FMBJIZd3ONsFyDjxeKavr+8XEy/m2UCiCjBMyYpSA+tWALe2t7c737v22jNLn420VlWbw60OBiL3AuiIxWKb+vr6dodcD81CDFOyrtTA+nnpz8caGxtfN3HLJ6bpDqxSA2niDqRb2ECiamOYUtWVnm36CIAveJ6XUtW1pQeyrIbF/wdF5Dmo3iaxWOa4447bvG3btkFbcxMdCcOUplXp46S/CeCbS5cuXTgyMnKuiPyWGvNGEVmhqscf5VQKoEdEHoHIA6q65VWnnvrgRAOJnwFP041hSqF54oknnkfpSVcTr6XT6WMBJH3fP0VV5wOod1Tj6jijAEZiqs8hHu83xvRns9nhyfOxgURhYphSpJSuEHgOwKNh10IURFQfnktENKMwTImILGCYEhFZwDAlIrKAYUpEZAHDlIjIAoYpEZEFDFMiIgsYpkREFjBMiYgsYJgSEVnAMCUisoBhSkRkAcOUiMiCssLUGMMQJqJZSVXLyreyBiXGH9pLRDTrOEBZ+VZWmPqxWEM544iIok5Vy8q38sLU9xeWM46IKOpUpKx8KytMRWRZOeOIiKJOVMvKt/IaScYsL2scEVHUiZSVb+V25V9d5jgioshqbm6uVdWmcsaWF6YiZ7S3t/PyKCKaVUZGRs4AECtnbFmBqKqLNmzY8MZyxhIRRZUa8/Zyx5a9d6m+/45yxxIRRVTZuVZ+mALvKXcsEVHULHXdtKqeUe748sNU9Q2NjY2vK3c8EVGUjKr+HgApd3xFTSRTLL6/kvFERFGgqgKRP6xkjorCVIF16XT62ErmICIKW6PrtqrqqZXMUenlTQ3FYvHPK5yDiChUBvhUpXNUfK2oAB8+1XVPqHQeIqIwNLpuK4CWSuepOExV9dgh4MuVzkNENN1aXHeer/pvNuYq90End07+3qi+33XdM20UREQ0XfqBzwBYPPk1EflpOXOV90TpWOyTAF48YH3g+ubm5gXlzEdENN3SrnsWVD8++TUBOiFyYznzlXuYn3eAT09+QVWXDQ8NfbfM+YiIps2prnuCD/wXJt2HLyKj8ZqaD5Y7Z9nnTK+86qqvQ+Rnk19T1TbXdT9W7pxERNW2YsWKmkHgv1TVm/y6AJ/t6el5rNx5yw7T9vZ2U1tb+/sisu+AN1T/0fO83y93XiKialFV2f/cc9er6gH34IvInVeuX/+VSuauqJu/Z8+eHnGc3wOgk+tSY77X6LprK5mbiMgmVZWU635LVQ94roiI5OrnzXtve3u7qWT+ii+Nymazd4jjfPSgl+O+6o2u636g0vmJiCrV0tKS8Dzv3xW4+qC3BhS4tKur6+lK17DygOdcLvevAvzrQS/HoLrBdd3PqmrZDw8gIqpEKpU6rr+//zaovnfy6yIyFhO5Ip/P/8rGOtaelp/r7/8IRL7xijdUP+953h3Nzc0n2lqLiOhoeJ53hjHmV1A9f/LrIjIGkXf15fP/a2stqx89ks/nP+SI/NMr3lC9cHho6OHSbVtERFXV1NRUl3Ldz6sx/wfV9EFvvyiOszaXy91qc03rn+OUzef/CiJ/CsCf/Lqqur7qJs91b02n00ttr0tEBACpVOqdhbGxR4zqZwHEJ78nIv0JkXOz2exm2+tW5UPx8vn8t5xY7B0A9h78nqpe7BeLj3uu+z3P8yp65BUR0YRUKvVO13V/bnz/dlVddvD7AnQmamre2JPP/7Ia61ftE0az2ezdtXV1p4vILQe/p6oJVX2/GvOY57odqVTq8hUrVtRUqxYimp2WLVt2UiqZ/LDnug8b378dqqsO3kZEChD53JlnnXVed3f3K3bwbIkfeZPy7dmz50kAa1LJ5PsM8M8ATj5oE0dV16jvr9n/3HPPecnkbSqypba2dsuePXt6qlkbEc087e3tzveuueYNRZG3AzhveGjo7QDiUJ1yexF5QBxnXS6b/c3GjRurWpukksl1Brg2yKBYPO719fXlg4xZvnx5w8DAwKcE+HNVrT+KIU8BeBwiO0SkV4wZMCIDAIZw4E0CRDTLOOOXVs5Xx2mAMYtUZBmA5VBdDuCYI04g0uuo/k1fPv8fIhIoLzzPu1qN+XaQMbV1dadUdc90sh07dgwA+OSSJUv+dXR09CNQvRrA4Z4ydRKAk6B6jqqOp+chfvsQ0ezy0q1IpvTVUf7bF5FdAnz55GTy+q1btxZEpu8S96qdMz2UPXv2PJnP5z9xwoknuo7IlSJyL7inSUTlEhkSkf+GyPnZXG55Np/fsHXr1sJ0lzFte6YH27Zt2yCADQA2pFIpzxjTCuAdApyrqseFVRcRRZ+IdCnQ6TjO5pONuWNrPj9Uej20mkIL08my2WwOwDcBfFNVpbGxcRmAlar6GhjTCBFPgYVQrReRWvD2VKLZTcQAGIbqMESehkgOxvSoyCP19fXbdu/e/dTEptkQy5wsEmE6WelkcVfpDxHRjDDt50yJiGYjhikRkQUMUyIiCximREQWMEyJiCxgmBIRWcAwJSKygGFKRGQBw5SIyAKGKRGRBQxTIiILGKZERBYwTImILGCYEhFZwDAlIrKAYUpEZAHDlIjIAoYpEZEFDFMiIgsYpkREFjBMiYgsYJgSEVnAMCUisiAedgGVamtri91zzz1uIpGYD2AkkUjku7q6RsOui4jmlhkZpo2Nja76/h8ocOm999zzJqjWFMbGAACFsTHfc91HBdjsxOM/7O3t3R5yuUQ0B8yoMF26dOnCkZGRvzO+f5Wq1hxis5iqnqbAaaZQ+JjruplEIvHRnp6ePdNaLBHNKTPmnGljY+PrRoaHfwXVDx0mSA8mUL2sMDb2a8/zLqlqgUQ0p82IME2lUqv9YvFeAEvKnKJBjelwXfeDNusiIpoQ+TBNpVLNasxNABoqnMqB6tdTqdQ7bdRFRDRZpMO0paUlob6/SVWPtTSlo8b8p+d5KUvzEREBiHiY7t27988UeJ3NOVV1oar+o805iYgiG6arV6+OQ/XjVZlc9T3pdHppVeYmojkpspdGdXV1na+qycNtIyIPKHAjgF85jvMUgGNV9dUwZo0CF+HQvywc3/ffB+DvLJdNRHNUZMNUVS88zNt7YsCf9OXz/zPFe3cDuCaVSp1mjPk2VFcdZn6GKRFZEdnDfBjz+qleFpEH5ou8pa+/f6ogfUk2m/1NMpn8LQF+NOUGqlPOT0RUjuiGqcgrOu4i0ldXX79mZz7/zNFMsXXr1sKrli9/v4zvrR5s/tKlSxdWXCcREaIcpkDtK14R+cju3bufCjJJZ2dnUWKxdQCKr5xOXrkGEVEZIhumqvrC5O9FZGcul/txOXNls9ldIvKKsaOjowPl1kdENFlkw1REdh/wPdBR4YSbDpq/P5vNDlc0JxFRSWTDFKr3H/CtyCOVTBeLxQ58FJ/qfZXMR0Q0WWTDNJZIHLwn+mwl8zmO8+xBL1S2p0tENElkw7S3t/dRiPx80ksnVDKfMeb4ia9F5Nnjjz/+xkrmIyKaLLJhCgCO43xm4mtRrege/WKxeNrE1wp8adu2bYOVzEdENFmkwzSbzXYKcA0AKNCqqlLuXAK0AoCI3J9MJr9qqUQiIgARD1MAOMV1PwSRn6lqs+d57y5nDtd1l6vqu0Qkm6ipuWzr1q0F23US0dwW+TDdunVrwXGcVgE6BfjnpqamU4KMb2lpSQD4roj0xBOJC7q7u/dWqVQimsMiH6YAkM1m953iuhcosKkwOnrzsmXLTjqacc3NzbV7+/uvBzAojvOWnp6ex6pcKhHNUTMiTIHxPdR8Pv8hOM6Hh4eHv+B53sWH236x675xeHDwqxC5MZ/PX5TNZvdNV61ENPdE9hF8h5LL5e4DcN+SJUsWe573NgDZRYsW7X/ta187vGPHjrrBwcFjisPDKd9xirls9uqw6yWiuWHGhemEPXv29ADoAYBcLoft27cDwGDpT6CHoRARVWrGHOYTEUUZw5SIyAKGKRGRBY46zmjgQY7DhyoT0awkxgTON1UddcSYwA9I9n2/IegYIqKZQB1nftAxTU1NLzpGJHCYOsacHHQMEdFMoKqB7rIUkeHOzs6ikwACX8xugOVBxxARzRBB820fADh1DQ27gq5kgNODjiEimhGCfgy86i4AcHbs2DEgIvkgY0X1twItRkQ0A6TT6RUAjurZH5M8Drx8aVSgB4AosHTx4sWvCbggEVGkmWLxkqBjZHKYCvDzw2/+SsVi8feDjiEiijKjGjjXnFJ+jodpLLYl6ARqzAeamprqgo4jIoqixsbGcwCsCDJGRJ77wFVX/QoohemCBQvuh8hQwLVPLo6NXRlwDBFRJPm+/+mgYxTobG9vN0ApTLdv3z4mwC1BJzKqn2lqaloUdBwRUZSkUqmLoHp+0HEO8ONJX48Tx7m+jBpOKoyOfqmMcUREkdDiuvPUmG+UMXTgZCAz8c1LYdrc3Py/AJ4MOpsCV6WSycvKKISIKHR7gW+q6rKg40Tkx1vz+ZdOj74Upp2dnUVxnG+WU4yKfL+xsbGiz7UnIppurut+UFX/qKzBIl+b/O0Bj+BLJBJfB/BC0DlVdaHx/c2LFy9eUlZRRETTzPO8d0P16+WMFZFbc7ncw5NfOyBMu7u794vjlHPuAKrqFQuFn6dSqdPKGU9ENF1SrnulGvMfKPOZzuI4Xzj4tVdMVF9f/2UR6S9nAVV1je//3PO8tnLGExFV04oVK2o8z/s3o3odgFhZk4j8ZzabfeDgl18x2b59+0YbGhpyAK4oayGgFqptCxYsWJxsaLjn2YGBoNevEhFZl04mW4ZGRjqgWknD/IVETc2a559//sWD35gymQcGBh5pWLDgTACBO1yTvKEgcmVDQ4Om0+ltTz/99FgFcxERlaWxsXHZgvnzv+ID3wTgVjKXI/Kxvmx2yjtG5VCDmpqaThkbHX0YQMUPghaRfQr8eywWu6G3t/cXIqKVzklEdChNTU11xdHRdxqRP4DqpSj3kH4SEbk5l8+vPeT7hxvsed471Jj/hd0P3ntaRDohsg3ADhF52vH9AROLcc+ViMoxzxjTAKARwHIB3gLgDFW19+wQkd54PH56b2/vc4fc5EhzeJ73ETXmn60VRUQ0swwkRFb35PO/PNxGR9z1HRgYuG/hggXHKLDKXm1ERNEnImPiOGv68vl7j7TtUR2+9+Vyn4DIdZWXRkQ0M4hIQRznd3O53J1Hs/1RhamIaD6fXw+RL1dWHhHRjDDoqF6azWZvPNoBgTpcAwMDP13Q0PA8gPNhtylFRBQVTzqx2EXZfP7/ggw6YgNqKqlU6lw15j9UtaJrtoiIokRE7krU1Pxud3f33qBjy9q7zGazd9fPm3e6iNxazngioigRkTGItK9bv/68coIUKHPPdLJUMnmZinxVVRsrnYuIaLqJyJYE8Kfd+fzjlcxT8V0BL7z44uNLliy5dnhkZFiA1wOYV+mcRETVJiLbxHH+LJfPf3L/wMAzFc9no6gJK1euPObZZ5+9Wo35MwBNNucmIrJC5GcAvpLL5W6xeWu71TCdoKqSTqfPVt//QwXWqurx1ViHiOhoiMgOAf5LYrEb+vr6dldljWpMOpmqiud5p4vI22HMmQq8RkSWqWpNtdcmorlHRJ6H6k6IPAKRu1V1Sz6f76v6utVeYCptbW2xBx98MI1C4VjfcRpUtUFEGK5EVI4hx5gB4zgD8Xj8qXK78ZX6/64xPAN3qYfkAAAAAElFTkSuQmCC" parent="1" vertex="1">
          <mxGeometry x="140" y="440" width="100" height="130" as="geometry" />
        </mxCell>
        <mxCell id="3KtTvewTF6bU5-9G9vKZ-7" value="Search Head" style="text;html=1;align=center;verticalAlign=middle;resizable=0;points=[];autosize=1;strokeColor=none;fillColor=none;fontFamily=Georgia;fontStyle=2;fontSize=18;" parent="1" vertex="1">
          <mxGeometry x="225" y="160" width="130" height="40" as="geometry" />
        </mxCell>
        <mxCell id="3KtTvewTF6bU5-9G9vKZ-8" value="Indexer" style="text;html=1;align=center;verticalAlign=middle;resizable=0;points=[];autosize=1;strokeColor=none;fillColor=none;fontFamily=Georgia;fontStyle=2;fontSize=18;" parent="1" vertex="1">
          <mxGeometry x="245" y="570" width="90" height="40" as="geometry" />
        </mxCell>
        <mxCell id="3KtTvewTF6bU5-9G9vKZ-12" style="rounded=0;orthogonalLoop=1;jettySize=auto;html=1;exitX=0.5;exitY=1;exitDx=0;exitDy=0;entryX=0.5;entryY=0;entryDx=0;entryDy=0;" parent="1" source="3KtTvewTF6bU5-9G9vKZ-2" target="3KtTvewTF6bU5-9G9vKZ-3" edge="1">
          <mxGeometry relative="1" as="geometry">
            <mxPoint x="200" y="320" as="sourcePoint" />
            <mxPoint x="100" y="430" as="targetPoint" />
          </mxGeometry>
        </mxCell>
        <mxCell id="3KtTvewTF6bU5-9G9vKZ-16" value="" style="shape=image;verticalLabelPosition=bottom;verticalAlign=top;imageAspect=0;image=data:image/png,iVBORw0KGgoAAAANSUhEUgAAAVMAAAG3CAYAAAAJnrbgAAAACXBIWXMAAC4jAAAuIwF4pT92AAAE7mlUWHRYTUw6Y29tLmFkb2JlLnhtcAAAAAAAPD94cGFja2V0IGJlZ2luPSLvu78iIGlkPSJXNU0wTXBDZWhpSHpyZVN6TlRjemtjOWQiPz4gPHg6eG1wbWV0YSB4bWxuczp4PSJhZG9iZTpuczptZXRhLyIgeDp4bXB0az0iQWRvYmUgWE1QIENvcmUgOS4xLWMwMDEgNzkuYThkNDc1MywgMjAyMy8wMy8yMy0wODo1NjozNyAgICAgICAgIj4gPHJkZjpSREYgeG1sbnM6cmRmPSJodHRwOi8vd3d3LnczLm9yZy8xOTk5LzAyLzIyLXJkZi1zeW50YXgtbnMjIj4gPHJkZjpEZXNjcmlwdGlvbiByZGY6YWJvdXQ9IiIgeG1sbnM6eG1wPSJodHRwOi8vbnMuYWRvYmUuY29tL3hhcC8xLjAvIiB4bWxuczpkYz0iaHR0cDovL3B1cmwub3JnL2RjL2VsZW1lbnRzLzEuMS8iIHhtbG5zOnhtcE1NPSJodHRwOi8vbnMuYWRvYmUuY29tL3hhcC8xLjAvbW0vIiB4bWxuczpzdEV2dD0iaHR0cDovL25zLmFkb2JlLmNvbS94YXAvMS4wL3NUeXBlL1Jlc291cmNlRXZlbnQjIiB4bWxuczpwaG90b3Nob3A9Imh0dHA6Ly9ucy5hZG9iZS5jb20vcGhvdG9zaG9wLzEuMC8iIHhtcDpDcmVhdG9yVG9vbD0iQWRvYmUgUGhvdG9zaG9wIDI0LjYgKFdpbmRvd3MpIiB4bXA6Q3JlYXRlRGF0ZT0iMjAyMy0xMS0xNlQwMDowMTo0NyswODowMCIgeG1wOk1ldGFkYXRhRGF0ZT0iMjAyMy0xMS0xNlQwMDowMTo0NyswODowMCIgeG1wOk1vZGlmeURhdGU9IjIwMjMtMTEtMTZUMDA6MDE6NDcrMDg6MDAiIGRjOmZvcm1hdD0iaW1hZ2UvcG5nIiB4bXBNTTpJbnN0YW5jZUlEPSJ4bXAuaWlkOjJkY2IwNzJhLTJmZjEtMmE0Yy04Yjg2LTNkNjZiYWQzYjZhMiIgeG1wTU06RG9jdW1lbnRJRD0ieG1wLmRpZDoyZGNiMDcyYS0yZmYxLTJhNGMtOGI4Ni0zZDY2YmFkM2I2YTIiIHhtcE1NOk9yaWdpbmFsRG9jdW1lbnRJRD0ieG1wLmRpZDoyZGNiMDcyYS0yZmYxLTJhNGMtOGI4Ni0zZDY2YmFkM2I2YTIiIHBob3Rvc2hvcDpDb2xvck1vZGU9IjMiPiA8eG1wTU06SGlzdG9yeT4gPHJkZjpTZXE+IDxyZGY6bGkgc3RFdnQ6YWN0aW9uPSJjcmVhdGVkIiBzdEV2dDppbnN0YW5jZUlEPSJ4bXAuaWlkOjJkY2IwNzJhLTJmZjEtMmE0Yy04Yjg2LTNkNjZiYWQzYjZhMiIgc3RFdnQ6d2hlbj0iMjAyMy0xMS0xNlQwMDowMTo0NyswODowMCIgc3RFdnQ6c29mdHdhcmVBZ2VudD0iQWRvYmUgUGhvdG9zaG9wIDI0LjYgKFdpbmRvd3MpIi8+IDwvcmRmOlNlcT4gPC94bXBNTTpIaXN0b3J5PiA8L3JkZjpEZXNjcmlwdGlvbj4gPC9yZGY6UkRGPiA8L3g6eG1wbWV0YT4gPD94cGFja2V0IGVuZD0iciI/PsqQcCMAADDoSURBVHic7d15fBxnfT/wz3d2V4dj2c6dnVmtZVvEgIkJiCtxDhdy0SS2EiIopRc0dlJaSstRaLlECy209OAmCeZI6PGrSbzK6RbiKIXcGIKJk9iWYx27K+dynCg6d+f5/v7QKpEd+ZjdZzUj6fN+vfx6SbvzPM9XTvzRzHxnZgUhanHdeftqaxsKhUKD4zg1YdZCRDOPiKiIDBcKhYFFixYNbN++fSy0WqZjkeXLlzcMDg6eraqrYMyrFVguIs2qWjsd6xPR3CAi+wHsgOoOEdkOx+k844wztm7cuNGv+trVmnjx4sXJQqHwPgEuV9U3A4hXay0iokMRkecV6ATwnzU1NR3d3d0jVVnH9oSe512sqh+C6nkAYrbnJyIqVylY/7sG+JfufP5xq3PbmERVpbGx8XI15lOq+gYbcxIRVZERkR+L43wxm81uszFhxWGaSqVOM8Z8C6pn2SiIiGgaGRH5TqKm5lPd3d37K5mo7MPwFStW1NQmEl8yxnwfQFMlRRARhUQAvNn3/Q8sWLiwd2BgYHslEwWWTqeXFguF/wbQUu7CRERRI8C1idraD5fTpAocpp7nXQzVf1fVhUHHEhFFnYj8uhZY80Q+3xtknBNkY8/z/kiNyTBIiWi2UtXXjwL3pNPpFUHGHXWYep73UR0/P8rrRYloVlPVlF8s/iyVSr31aMcc1WF+KplcZ4Bryy+NiGjmEZF9sXj87N7e3kePuO2RNkglk5cZYCN4AT4RzUEiklXgzHw+33fY7Q73ZmNj4+uM7z+oqvUWa1MBtqvIrwHsFJGnxJgBdZyCxTWIaO6oF9UGAzQCWC7AW1Q1aXUFkV/OmzfvzK6urtFDbnKoN1auXHnMM08//RCA11goxUDkThG5ob6+fnNXV9fTFuYkIppSk+u+uqB6mYr8AVRfbWNOR+Sb2Xz+zw71/iHD1HPd76nq+ytcvygiN4jj/EM2m91V4VxERIGlUqmL1JjPqOqZlc7lAJdn+/s3TfXelGGaSqVWG9+/q6JVRe5xHOeDtu57JSKqRKPrvtdX/RcAp5Q7h4jk5zc0vHrHjh0DB7/3ikujWlpaEsb3v1XuYgB8iHxu/fr15zBIiSgq+vL5/5wvchqAzeXOoaruiy+88Pmp3nvFnqmXTP6FAv9a1koiQ47jtGWz2dvLGk9EVGWqKinP+ydV/WiZUxQh8rp8Pr9j8osH7Jk2NzfXQuSvylzgRRE5j0FKRFEmIprL5z8mjvPpMqeIC/DXB794QJgODw9/oJxLCkSkEBe5PJfL3VdmcURE0yqXy31RyjwKV9X3NTU1NU1+zTloi4+UM7Gofrw3n/9JOWOJiMKy7qqrPiYiPy1jaLxQKHx48gsvnTNNu+6qourPg84oIrfk8vk1ZRRDRBS6ZcuWnTQ8NPQIgBMDDn3q1OXLvc7OziIwac/UV/2DMuoYrAUOeRErEVHU7d69+ylxnHJ6RSft2rXroolvHABob293INIWdCZH5CtBn/lHRBQ12Wz2hxD5ZeCBxrxn4ksHADZs2PBGVT024DQDTjz+1cCLExFFjIio4zhfLGPgOya+dABAff/tZSx+Q29v73OBFyciiqC+vr5NEAl0pK2qySbXfTUwEaaq5wZdWBzn+qBjiIiiSkRURH4UdFxB5FxgIkyB1wYcvzebzT4QdFEioigTkY6gY1T1tQDgNDU11QFIB1yxsoegEBFF0BlnnLFVRJ4POGz8ML9YLL4KAT9YT0R+EXAxIqLI27hxow/VhwMNUj0VABxVDXqhKgDsOPImREQzUtB8OxEAHEe1oYzFcmWMISKKPBUJmm/HtLe3O446TuAwdRznFQ9GJSKaDUQkcL796Ec/mu/A98v5sLzhMsYQEc0EgfPN9/36QI0nIiKaGsOUiMgChikRkQUMUyIiCximREQWMEyJiCxgmBIRWcAwJSKygGFKRGQBw5SIyAKGKRGRBQxTIiILGKZERBYwTImILGCYEhFZwDAlIrKAYUpEZAHDlIjIAoYpEZEFDFMiIgsYpkREFjBMiYgsYJgSEVnAMCUisoBhSkRkAcOUiMgChikRkQUMUyIiCximREQWxMMugGgqS5cuXVgoFI4RkTrf9+OJRGIMwEixWHw+m80Oh10f0cEYphSqVCrVDGNWAzhdgdeq6lIROWVkeLh28nZjo6Mvfe0mky+ISD+AHQo86qg+iFjs7mw2u296qyd6GcOUplVbW1vs/vvvX2WKxVYFLje+v/jgbVT1SNMsUNUFAJYDWGMAwPfVc90HBbhJRTK5XG6n/eqJDo1hSlXX4rrz+oHzBGi995571qjq8VVYRlT1rQq8Fapf9lx3B0RuEpFMX1/fQyJyxIQmqgTDlKriVNc9YVDkt1W1dS9wEVTrpzPNVHU5VP9agb9OeV6/57oZB8gsOPbYzu3bt49NYyk0RzBMyZrFixcv8QuFSxVofVH1HKjGACDsXUJVTQL4Ex/4k+f27RtwXfdWEcnU19dv7urqeiHk8miWYJhSRTzPe72qtgrQWhgbOz3seo5CA1Tfq6rvHR4aGvOSyTsFyEg8fmtfX18+7OJo5mKYUiBtbW2x++677yxVbVVjLlNjFgPh732WQ1VrALxTgXeiWFTPde8XoMMAmXw+vyPs+mhmYZjSEbW47ryngPPNyw2k48KuqQpEVc9Q4AwAX/Jcd6cCNzmOk+nr63uQDSw6EoYpTanUQLq41EC6UFXrw65pOqnqqQA+aXz/k57r7vWSyfEG1nHH3cUGFk2FYUovWbx48RJ/bGxNqYF0dlQaSBFwigJX+8DVz+3bN+C57m0KZOrq6jY/8cQTz4ddHEUDw3SO8zzvdFFt1fEG0uvDrmcGaFDV3wHwO6MjIwU3mbxTHCfjOM4tbGDNbQzTOWb16tXxrq6u8QaS6mVqTJp7nuVR1QSAi9SYi3xjvu257gMCdMSBTHc+/3jY9dH0YpjOAS2uO+9J1QsVuGzXzp0XR7iBNCgi9yuwXUS6xZinAAyp4xREpNYYs0BUTxGRZgOcDtXTEZ0nn4mqvk2Bt40B/+C57i4BMiqyKZvN3s8G1uzHMJ2lmpubTxweHn65gQTUAQCOfN/7tBKRfgVuFZGORYsW/SRIc8fzvOMnTlEAeEeUmmSq+ioFPg7Vj5caWB0Si2Xq6uru6urqGj3yDDTTMExnkXQ6vdQvFNYAaB0aHDwbpb22aMUnICK7BMgYIJPN5e6b2GvL5XKB5snlcs8C2ABgQ4vrznsyFnun+n4rRN5Zpfv/y3WKAlep7181NDg44Lnu7aUG1h1sYM0eDNMZznXdNzhAqwKtxUJhZdj1HIIK8AsAmYTITZPPJ4qIlQW25vNDAG4EcGNbW1vs3nvvPVdVW6F6KYAmK4vY0aCq7wHwntGRkYLrultEJCMit2Sz2WC/TShSJJVMrjPAtUEGxeJxj53LcKxevTq+a9eus1W1FUArVNNh1zQVERlT4G4AmUQisamnp6c/rFoWu+4bi+OnAlpV9bSw6jgCFZEHodoRr6nJ9PT0PBZ2QXOV53lXqzHfDjKmtq7uFO6ZzgArV648Zt/TT1+gQOuunTsvVdVjw67pEF4Qkf8RIFM3b96tUXmISE8+/0sAvwTw2aampqZCoXB5aa/1TACxkMubIKr6VgBvLYyN/b3nursU2CQimXXr1j3Q3t5uwi6QDo97phHV3Nx84tDQ0CUyvkd1garWhV3TVESkH6q3SCzWsXDhwp/OpLuDPM87XlXXlv6Oz4tSA+sgTwow0cDawgZWdXHPdBZIp9NLfd9fq8a0Dg0OngXAiVrzCABEZKcCGRHJTL7sJ5vNhl1aIKUG1vcAfK/UwLqo1MD67Yg1sE5WYL36/vpSA+sOB8gk6upuZwMrOhimIZt8Pq9YKET3fB7wEMavm7wpN+mJSrYaSGErNbBuAnBTqYF1TulUwBpEr4H1bh94txlvYN1VamDdzAZWuHiYP81KDaRzJp4BqqqNYdc0lVIDqVNEMvF4PBNmAylsk6+YUNUoXzHxEICOWCKR6e3tfTTsgmYqHuZH2MqVK4/Zt2/fher7rbt27rxkooEUwUP4F0RkswNkaufNuy0qDaSw5fP5XwH4FYDPlRpYl6kxrQBWIUoNLOAtAN5SLBS+OHEHlgEy69evv58NrOrjnmmVlBpIl5aaG+dHuIGUn9RAunMmNZDCVmpgrZHxvdbzoDov7JoO4UmI3Ow4Tqauru5ONrAOj3umEdDY2LjMGLNWVVuHBgdXIboNpB2TGkgPzNQGUthKDazvA/h+KpWqh+9fpEArxp8DG6kGFlTXGd9fNzQ4+KLnuncIkInX1Nze3d29P+ziZguGaYXSyWSLX2og+cXi68Ku5xBURB4sHfZtmo0NpLBls9lhAJsAbCp9tMvZpY92WYtoNbDmq2qbAm2FsbGC67qdGP/FenMul+Nv0wrwMD+gUgPp3FIDaW3EG0h3iUgmkUhkuru794Zd01w1+ZmxqhrVZ8aO3/LrOB2xWCzT29u7PeyCwsLD/CpSVUm77gUGeF+UG0gi8jyAzRC5af78+Xfs2LFjIOyaCMjlcg8DeBhA+5IlSxYXRkbGgxU4G9FqYL0Zxry5aMwXPNftUuDHiUTiet7aenS4Z3oEja77XgN8TlWXh13LVEoNpJsdkU0nJZN3bd26tRB2TXR0PM87HsAlqnoZgPOj2sAS4HY4zt/kcrlfh13LdOCeqWVNTU1NhdHR7/uqq8OuZQqPQaTDcZxNfX19D000kPryc+L326xRamD9EMAPU6lUvRhzoRnfY70YqieEXd8EBX4bxlzkJZP/Vn/MMX/DqwGmxjCdQtp1VxXGxjoUiEpHVkXkgYknt+dyuZ0Tb7CBNDuUGlgZAJlSA+usSQ2sJeFWB2D8ypSPDA8Nve1U1127M59/JuyCooZhehDP867wVX+kqrVh1iEiY1C9E47TkUgkOthAmjs2btzoY/zxhXcD+EvP814/qeH5hjBrU9UzB0XuS6fTF/b29j4RZi1RwzCdJJVKrVZj/qP0QWnTrtRAukOBzPyGhtvZQCIAKJ2r/DWAz0ehgaWqzX6xuDmVSr0tm83um+71o4phWuJ53qlqzE3THaQikgNws6PacVIyuYUNJDqcPXv29AD4KoCvplKp41T1UlVdC+DC6Wxgqeqr1Pc3tbS0nMf/Z8cxTAG0t7c711177Q+n8aHLj4njZEQkc0ADqX/OPkuEylDaK5zcwLqg1MC6ZJoaWOfs3bv3rwB8cRrWijyGKYDrrrvuKlV9WxWXUBG5v9RAyrCBRLaVGlgdADra2tpi999//ypTLE58cmv1Gliqn06lUv8vm812VW2NGWLOh2lzc/OC4aGhv7c9r4iMQnWLjD/Et2PPnj1P2l6DaCqlBtb/lf58JJVKrTTGTDzy0WoDS1Xr1JivYDy057Q5H6YjQ0NXq+oiG3OJyPMK3C4iGd6BRFGRzWa3AdgG4G+Xum567OVns54NGxmguiadTr92rj9Ddc6HqQLrKxlfaiB1OEAH70CiqHsin+8F8DUAXys1sC4pfdJtJQ0s8QuFKwF8xFadM9GcDlPP805XY5aVNVjk3x3H+RrvQKKZqtTAuh7A9S89QlDkM2WdChC5AnM8TJ2wCwiTqp5XzjgHuCqfz/9eNpt9cCJIiWaybDY7nO3v33RKMvlWGf8srEBUtdHzvFOrUdtMMafDVIA3BR8kX8/29wd6MAzRTLF169ZCorb2fRB5POhYMebN1ahpppjTYaqqzQGHvFhTU/PZqhRDFBHd3d0jjuN8Kug4I1LeKbNZYk6HKYDjgmwsInfxYx5oLli4cOGtIhLo88BEJNC/p9lmToepiAR6mIkCfNgIzQnbt28fU9XnAg0yJtSHA4VtTocpER1W0ObqnL6dj2FKRGQBw5SIyAKGKRGRBQxTIiILGKZERBYwTImILGCYEhFZwDAlIrKAYUpEZAHDlIjIAoYpEZEFDFMiIgsYpkREFjBMiYgsmNMfqBdF6XT6WABuNdcQkX09PT39QcZ4nndqLBZLVKumcsyWn6McS5cu3dHZ2VkMuw56GcM0Ykyh0GaAa6q5hgDXArgq0CDVzmKhkKxOReUp5+dQY+4uGnNKlUqaNt3d3UnwYeWRwsN8IiILGKZERBYwTImILGCYEhFZwDAlIrKAYUpEZAHDlIjIAoYpEZEFDFMiIgsYpkREFjBMiYgs4L35EeMkEj9V3393NdeIq+4OPEhkvYjUV6GcspXzc4jjrAMQqZ+jTPvDLoAOxDCNmN7e3icAPBF2HQfL5XK3hl2DDbPl56Do4WE+EZEFDFMiIgsYpkREFjBMiYgsYJgSEVnAMCUisoBhSkRkAcOUiMgChikRkQUMUyIiCximREQWMEyJiCxgmBIRWcAwJSKygGFKRGQBn2cahOo6N5lcF3YZRBQ93DMlIrKAYUpEZAHDlIjIAp4zDUBENsbi8faw6yCaDsVi8W6onhB2HTMFwzQABfb39vY+GnYdRNPBTSaLYdcwk/Awn4jIAoYpEZEFDFMiIgsYpkREFjBMiYgsYJgSEVnAMCUisoBhSkRkAcOUiMgChikRkQUMUyIiCximREQWMEyJiCxgmBIRWcBH8EVMOp0+FoAbdh2z1dKlS3d0dnYe9aPlovrfI+jPQdXHMI0YUyi0GeCasOuYrbq7u5MA9h7t9r7vv1uN+U4VSypL0J+Dqo+H+UREFjBMiYgsYJgSEVnAMCUisoBhSkRkAcOUiMgChikRkQUMUyIiCximREQWMEyJiCxgmBIRWcB78yMmVlPzEy0W28KuYxbbH2TjWCz2Ex+I4n+P/WEXQAdimEZMT0/PHgB7wq6DxvX29j4B4Imw66Do42E+EZEFDFMiIgsYpkREFjBMiYgsYJgSEVnAMCUisoBhSkRkAcOUiMgChikRkQUMUyIiCximREQWMEyJiCxgmBIRWcAwJSKygI/gC0hVJewaiKaD57phlzCjMEyDUF3nue66sMsgoujhYT4RkQUMUyIiCximREQW8JxpACKyMZ5IfC7sOoimQ6FQ+D+onhB2HTMFwzQABfb39PQ8FnYdRNPBTSaLYdcwk/Awn4jIAoYpEZEFDFMiIgsYpkREFjBMiYgsYJgSEVnAMCUisoBhSkRkAcOUiMgChikRkQUMUyIiCximREQWMEyJiCxgmBIRWcBH8EVMOp0+VlW9sOs42LJlyx7v7Ow86keylfNzTMcas0XQvyuqPoZpxJhCoc0A14Rdx8H27NnjAug/2u3L+TmCruH7/rvVmO8EWWO26O7uTgLYG3Yd9DIe5hMRWcAwJSKygGFKRGQBw5SIyAKGKRGRBQxTIiILGKZERBYwTImILGCYEhFZwDAlIrKAYUpEZAHvzY+YWE3NT7RYbAu7joOJyHNBti/n5wi6Rjwe/99iBP+upkM8Hg/0d0XVxzCNmJ6enj0A9oRdR6Wm4+eYLX9XNDvwMJ+IyAKGKRGRBQxTIiILGKZERBYwTImILGCYEhFZwDAlIrKAYUpEZAHDlIjIAoYpEZEFDFMiIgsYpkREFjBMiYgsYJgSEVnAMCUismBOh6mqFoJsL8CiKpVCFCnt7e2OiCwMMkZFxqpVz0wwp8NURPYH2V6B32pubq6tUjlEkXHdddedq6r1QcYIsL9K5cwIczpMNehT2lVPGBka+ovqVEMUDaoqqvq3gcfN8U89mNNhKiK/DDpGgb91Xfe8atRDFAWNnvePUD0r6Lhy/j3NJnM6TGOqdwUdo6o1Atzqed6nUqnUcdWoiygMixcvfo2XTG40qh8LOlZEnj3zzDMfqUZdM8WcDtO3rlp1H4Ang45T1Vo15gtqzF43mbzDdd0PplIprwolElWV53mne677t57rPlwYG3tUgSvKmUeAjo0bN/q265tJ5vSnk27cuNF3XfcHUP1EOeNVNQHgIqheZHz/G57rPihAxonHb+7t7X3UcrlEFVu9enV8165d5wBYA9XL1ZhGG/MaYIONeWayOb1nCgCxWOxrIjJqYSpR1bca1X8oFgrbPdfd6brulzzPe1t7e/uc/3um8KxcufKYRtdt9Vz3B7t27nxKjblTjfmwqloJUojck8/n77Uy1ww2p/dMAaCvry/vJZP/BODTNudV1VcB+ISqfuLaa6550ksmMxKLZerq6u7q6uqyEd5Eh9Tc3Hzi8PDwxara+uwzz1yoqnVVWso4jvPRKs09o8z5MAWARG3tFwtjY+8pBWA1nKzAVer7Vw0NDr7oue5tCmRqamo2d3d376/SmjTHNDY2LjPF4qUAWocGB89G6chTq7imiHwnm80+UMUlZgyGKYDu7u6RtOu+3xfZoqo1VV5uvqq+B8B7CmNjBdd1O0XkJgC35nK5bJXXplnGdd03iOrlEFnjF4srp3NtEdlRP2/eX0/nmlHGMC3pzefv8TzvSqheP11rlhpY56vq+QC+5SWTDwHIxGtqMj09PY9NVx00c5QaSGeraqsAl6lqowKAVnP/cwoizzix2MVdXV0vTO/C0cXGyCS5XO4GR+STIS0vCrxFgb8vjI096rnurpTr/pPneWewgTW3rVy58phUMnmZl0zeUGogbYHqn1trIAUkIvtFZE1fX9/uMNaPKkklk+sMcG2QQbF43Ovr68tXq6iweZ73+1D97jQc8h+tJwXoKDWwtrCBNfstW7bspOHh4YsFaAVwQRUbSEF1J2pqfns2Hzl5nne1GvPtIGNq6+pO4WH+FHK53A1p132iCNwAYEnY9WC8gbVefX/90ODgi14yudkRuSlWU3MHG1izR2Nj4zJjzBpVvXx4aOhMAM40H7wflgC3182b9/7du3c/FXYtUcQwPYTefP6elStXnvbsM898QlX/AkBD2DWVzFfgCl/1Cn90tOi67hYRyajqrfl8vi/s4iiYdDLZ4ousheplfrH4urDrmYqIdEHkU7lc7r/DriXKeC7uMLZt2zaYy+c/W1NbmxbgLwFsDbumg8SheoEa8y2o9rrJ5ENeMvk36XR6RdiF0dRWr14d9zzvHa7rft1z3b4i8AtV/YwCkQpSERkVkZudWOxdZ65a9WoG6ZHxnGlAS5YsWTw2MnIZgFYFViGie/ci0iXAJgNk1q9ff397e7sJu6a5asWKFfOff/75C9T3WyFyqaouCrumqYjI8wA2K5BpaGi4bceOHQNh1xSGcs+ZMkwrkEqljlPVNaraCuB8qM4Lu6ZDeAoiHY7jZOLx+Jbu7u6RsAua7UoNpEtKDaTzI9RAOoCI5KB6q8RimZNPPvnOrVu3Bvr0idmIDagQZLPZfQB+AOAHqVSqXoy50IzvsV4M1RNCLm+yk6C6zvj+ujHff9Fz3Ttk/HrW29nAsieVSjVP/HIdHhpahYg1kCaIyA4FMiKSyWazD4iIAkA2y3tGKsEwtSSbzQ4DyADItLW1xe67776zVbUVxlyqwNKQy5tsvqq2KdA2Nt7Augvj/7Bu5h1YwaWTyRZ/fO+z1fh+pM57TmJE5EEBOuA4N2az2V0Tb4hImHXNKjzMnwae550uqq0KtKrq68Ou5zB+IY6TicVimd7e3u1hFxNFLS0tib17955TugOpVVVTYdc0FREZVdW7xHEyNTU1mT179gR+bu9cxcP8CMvlcg8DeBhA+1LXTY+pXqbjpwPOQrSODt6kxrypaMwXPNfdLcAmB8h8YP36++ZyA6vUQLpQfb91b3//JRMNpKgdwpcaSHcokJnf0HD7XG0ghYV7piEqNbAuVdVWjN+ff0zYNR3CUxC5WUQyiUTizrnQwFq2bNlJo8PDl+rLDaRIfiptqYF0iwNkTnLdLWwgVY57pjNQqYH1QwA/bGpqqvPHxsYbWKoXAzgx5PImOwmqV6rqlWOjo4NeMnmHABknkbi9t7f3ubCLs6XUQFpbaiCdiahehy3yOICM4ziZvr6+BycaSH39/SEXNrcxTCOitLfXAaCjvb3d+e53vzvRwFoTsQbWMQpcocAVplAoeq7bqeONt5tn2h1YqirpdLrFFIutOt5AiurNDkZEHig1kG5iAymaeJg/A3ie9/pJDY/Tw67nMLaK40zsMUXykypbWloS/f395zrj56zXRrmBBNUtAmQSdXUdbCBNHx7mz2K5XO7XAH4N4PNLXTc9Nh4Erap6NqJ1dNGixrT4xvyd57q7AWRi4w2se8NsYK1YsWL+/v37L1LV1r39/RdDdVEUu2kisl+BO0Qks2jRotu3b9/+Ytg10dHjnukMlk6nj/V9f6KBdQGi28B6elID66fT0cBasmTJyYXR0YkG0nkRbiBlAYw3kJLJu9hACh/3TOegUvPnegDXNzU11Y2NjV1QOhVwCaLVwDoRqn+sqn9camBtllgs4zjObTYbWKlU6lXGmLUAWkdHRs5AVBtIwGPiOBkRyfT19T30UgMpz/2TmYxhOkuU9vZuBnBze3u7s2HDhrNMsdgKkTWquizs+iY5RoF3qe+/y/h+0XPduwXIGKAjaAOr1EB6kzGmVY1pNb7/2moVXSEjIvdPaiB1TbzBBtLswcP8OSCVSp2mqq06vtfWEnY9hyIivwHwcwEeg2pWgGcQjw8bY4oiUqOqDap6oqguUZHTBFitqsmw656KiIwC+KkAmdr6+pv5QOWZg4f5dEjZbPY3AH4D4O9c1210Xm5gnYMIHZ2o6mkATjvgzqJicfy9yduNbxzFO5D2K3B7qYF0BxtIc0tk/iHR9CgdSn8dwNdLDaxLYEyrAhciug2syCo1kG6OAZkTk8nOiQZSLpcLuTKabgzTOazU/LkBwA2lBtb5DtBqVC9FtBpYUfPopOtpH5p4sZcNpDmNYUoAXmpg3QLglvb2dmfDNdesMkArRNZGrIEVBgOR+wB0OI6zaXIDiWgCw5ReoXSB/c9Kfz76UgNr/HrWN4Zc3rQQkREAd7KBREeLYUpHNEUDa22pgXUuZtH/Q6UG0m2lBtJmNpAoiFnzD4GmR6mB9Q0A30in08caYy5W329V4CLMwAaWiGQF6DBA5lWnntrZ2dlZBNhAouAYplS2UgPrRwB+1NTUVFcoFM4rnQq4FMBJIZd3ONsFyDjxeKavr+8XEy/m2UCiCjBMyYpSA+tWALe2t7c737v22jNLn420VlWbw60OBiL3AuiIxWKb+vr6dodcD81CDFOyrtTA+nnpz8caGxtfN3HLJ6bpDqxSA2niDqRb2ECiamOYUtWVnm36CIAveJ6XUtW1pQeyrIbF/wdF5Dmo3iaxWOa4447bvG3btkFbcxMdCcOUplXp46S/CeCbS5cuXTgyMnKuiPyWGvNGEVmhqscf5VQKoEdEHoHIA6q65VWnnvrgRAOJnwFP041hSqF54oknnkfpSVcTr6XT6WMBJH3fP0VV5wOod1Tj6jijAEZiqs8hHu83xvRns9nhyfOxgURhYphSpJSuEHgOwKNh10IURFQfnktENKMwTImILGCYEhFZwDAlIrKAYUpEZAHDlIjIAoYpEZEFDFMiIgsYpkREFjBMiYgsYJgSEVnAMCUisoBhSkRkAcOUiMiCssLUGMMQJqJZSVXLyreyBiXGH9pLRDTrOEBZ+VZWmPqxWEM544iIok5Vy8q38sLU9xeWM46IKOpUpKx8KytMRWRZOeOIiKJOVMvKt/IaScYsL2scEVHUiZSVb+V25V9d5jgioshqbm6uVdWmcsaWF6YiZ7S3t/PyKCKaVUZGRs4AECtnbFmBqKqLNmzY8MZyxhIRRZUa8/Zyx5a9d6m+/45yxxIRRVTZuVZ+mALvKXcsEVHULHXdtKqeUe748sNU9Q2NjY2vK3c8EVGUjKr+HgApd3xFTSRTLL6/kvFERFGgqgKRP6xkjorCVIF16XT62ErmICIKW6PrtqrqqZXMUenlTQ3FYvHPK5yDiChUBvhUpXNUfK2oAB8+1XVPqHQeIqIwNLpuK4CWSuepOExV9dgh4MuVzkNENN1aXHeer/pvNuYq90End07+3qi+33XdM20UREQ0XfqBzwBYPPk1EflpOXOV90TpWOyTAF48YH3g+ubm5gXlzEdENN3SrnsWVD8++TUBOiFyYznzlXuYn3eAT09+QVWXDQ8NfbfM+YiIps2prnuCD/wXJt2HLyKj8ZqaD5Y7Z9nnTK+86qqvQ+Rnk19T1TbXdT9W7pxERNW2YsWKmkHgv1TVm/y6AJ/t6el5rNx5yw7T9vZ2U1tb+/sisu+AN1T/0fO83y93XiKialFV2f/cc9er6gH34IvInVeuX/+VSuauqJu/Z8+eHnGc3wOgk+tSY77X6LprK5mbiMgmVZWU635LVQ94roiI5OrnzXtve3u7qWT+ii+Nymazd4jjfPSgl+O+6o2u636g0vmJiCrV0tKS8Dzv3xW4+qC3BhS4tKur6+lK17DygOdcLvevAvzrQS/HoLrBdd3PqmrZDw8gIqpEKpU6rr+//zaovnfy6yIyFhO5Ip/P/8rGOtaelp/r7/8IRL7xijdUP+953h3Nzc0n2lqLiOhoeJ53hjHmV1A9f/LrIjIGkXf15fP/a2stqx89ks/nP+SI/NMr3lC9cHho6OHSbVtERFXV1NRUl3Ldz6sx/wfV9EFvvyiOszaXy91qc03rn+OUzef/CiJ/CsCf/Lqqur7qJs91b02n00ttr0tEBACpVOqdhbGxR4zqZwHEJ78nIv0JkXOz2exm2+tW5UPx8vn8t5xY7B0A9h78nqpe7BeLj3uu+z3P8yp65BUR0YRUKvVO13V/bnz/dlVddvD7AnQmamre2JPP/7Ia61ftE0az2ezdtXV1p4vILQe/p6oJVX2/GvOY57odqVTq8hUrVtRUqxYimp2WLVt2UiqZ/LDnug8b378dqqsO3kZEChD53JlnnXVed3f3K3bwbIkfeZPy7dmz50kAa1LJ5PsM8M8ATj5oE0dV16jvr9n/3HPPecnkbSqypba2dsuePXt6qlkbEc087e3tzveuueYNRZG3AzhveGjo7QDiUJ1yexF5QBxnXS6b/c3GjRurWpukksl1Brg2yKBYPO719fXlg4xZvnx5w8DAwKcE+HNVrT+KIU8BeBwiO0SkV4wZMCIDAIZw4E0CRDTLOOOXVs5Xx2mAMYtUZBmA5VBdDuCYI04g0uuo/k1fPv8fIhIoLzzPu1qN+XaQMbV1dadUdc90sh07dgwA+OSSJUv+dXR09CNQvRrA4Z4ydRKAk6B6jqqOp+chfvsQ0ezy0q1IpvTVUf7bF5FdAnz55GTy+q1btxZEpu8S96qdMz2UPXv2PJnP5z9xwoknuo7IlSJyL7inSUTlEhkSkf+GyPnZXG55Np/fsHXr1sJ0lzFte6YH27Zt2yCADQA2pFIpzxjTCuAdApyrqseFVRcRRZ+IdCnQ6TjO5pONuWNrPj9Uej20mkIL08my2WwOwDcBfFNVpbGxcRmAlar6GhjTCBFPgYVQrReRWvD2VKLZTcQAGIbqMESehkgOxvSoyCP19fXbdu/e/dTEptkQy5wsEmE6WelkcVfpDxHRjDDt50yJiGYjhikRkQUMUyIiCximREQWMEyJiCxgmBIRWcAwJSKygGFKRGQBw5SIyAKGKRGRBQxTIiILGKZERBYwTImILGCYEhFZwDAlIrKAYUpEZAHDlIjIAoYpEZEFDFMiIgsYpkREFjBMiYgsYJgSEVnAMCUisiAedgGVamtri91zzz1uIpGYD2AkkUjku7q6RsOui4jmlhkZpo2Nja76/h8ocOm999zzJqjWFMbGAACFsTHfc91HBdjsxOM/7O3t3R5yuUQ0B8yoMF26dOnCkZGRvzO+f5Wq1hxis5iqnqbAaaZQ+JjruplEIvHRnp6ePdNaLBHNKTPmnGljY+PrRoaHfwXVDx0mSA8mUL2sMDb2a8/zLqlqgUQ0p82IME2lUqv9YvFeAEvKnKJBjelwXfeDNusiIpoQ+TBNpVLNasxNABoqnMqB6tdTqdQ7bdRFRDRZpMO0paUlob6/SVWPtTSlo8b8p+d5KUvzEREBiHiY7t27988UeJ3NOVV1oar+o805iYgiG6arV6+OQ/XjVZlc9T3pdHppVeYmojkpspdGdXV1na+qycNtIyIPKHAjgF85jvMUgGNV9dUwZo0CF+HQvywc3/ffB+DvLJdNRHNUZMNUVS88zNt7YsCf9OXz/zPFe3cDuCaVSp1mjPk2VFcdZn6GKRFZEdnDfBjz+qleFpEH5ou8pa+/f6ogfUk2m/1NMpn8LQF+NOUGqlPOT0RUjuiGqcgrOu4i0ldXX79mZz7/zNFMsXXr1sKrli9/v4zvrR5s/tKlSxdWXCcREaIcpkDtK14R+cju3bufCjJJZ2dnUWKxdQCKr5xOXrkGEVEZIhumqvrC5O9FZGcul/txOXNls9ldIvKKsaOjowPl1kdENFlkw1REdh/wPdBR4YSbDpq/P5vNDlc0JxFRSWTDFKr3H/CtyCOVTBeLxQ58FJ/qfZXMR0Q0WWTDNJZIHLwn+mwl8zmO8+xBL1S2p0tENElkw7S3t/dRiPx80ksnVDKfMeb4ia9F5Nnjjz/+xkrmIyKaLLJhCgCO43xm4mtRrege/WKxeNrE1wp8adu2bYOVzEdENFmkwzSbzXYKcA0AKNCqqlLuXAK0AoCI3J9MJr9qqUQiIgARD1MAOMV1PwSRn6lqs+d57y5nDtd1l6vqu0Qkm6ipuWzr1q0F23US0dwW+TDdunVrwXGcVgE6BfjnpqamU4KMb2lpSQD4roj0xBOJC7q7u/dWqVQimsMiH6YAkM1m953iuhcosKkwOnrzsmXLTjqacc3NzbV7+/uvBzAojvOWnp6ex6pcKhHNUTMiTIHxPdR8Pv8hOM6Hh4eHv+B53sWH236x675xeHDwqxC5MZ/PX5TNZvdNV61ENPdE9hF8h5LL5e4DcN+SJUsWe573NgDZRYsW7X/ta187vGPHjrrBwcFjisPDKd9xirls9uqw6yWiuWHGhemEPXv29ADoAYBcLoft27cDwGDpT6CHoRARVWrGHOYTEUUZw5SIyAKGKRGRBY46zmjgQY7DhyoT0awkxgTON1UddcSYwA9I9n2/IegYIqKZQB1nftAxTU1NLzpGJHCYOsacHHQMEdFMoKqB7rIUkeHOzs6ikwACX8xugOVBxxARzRBB820fADh1DQ27gq5kgNODjiEimhGCfgy86i4AcHbs2DEgIvkgY0X1twItRkQ0A6TT6RUAjurZH5M8Drx8aVSgB4AosHTx4sWvCbggEVGkmWLxkqBjZHKYCvDzw2/+SsVi8feDjiEiijKjGjjXnFJ+jodpLLYl6ARqzAeamprqgo4jIoqixsbGcwCsCDJGRJ77wFVX/QoohemCBQvuh8hQwLVPLo6NXRlwDBFRJPm+/+mgYxTobG9vN0ApTLdv3z4mwC1BJzKqn2lqaloUdBwRUZSkUqmLoHp+0HEO8ONJX48Tx7m+jBpOKoyOfqmMcUREkdDiuvPUmG+UMXTgZCAz8c1LYdrc3Py/AJ4MOpsCV6WSycvKKISIKHR7gW+q6rKg40Tkx1vz+ZdOj74Upp2dnUVxnG+WU4yKfL+xsbGiz7UnIppurut+UFX/qKzBIl+b/O0Bj+BLJBJfB/BC0DlVdaHx/c2LFy9eUlZRRETTzPO8d0P16+WMFZFbc7ncw5NfOyBMu7u794vjlHPuAKrqFQuFn6dSqdPKGU9ENF1SrnulGvMfKPOZzuI4Xzj4tVdMVF9f/2UR6S9nAVV1je//3PO8tnLGExFV04oVK2o8z/s3o3odgFhZk4j8ZzabfeDgl18x2b59+0YbGhpyAK4oayGgFqptCxYsWJxsaLjn2YGBoNevEhFZl04mW4ZGRjqgWknD/IVETc2a559//sWD35gymQcGBh5pWLDgTACBO1yTvKEgcmVDQ4Om0+ltTz/99FgFcxERlaWxsXHZgvnzv+ID3wTgVjKXI/Kxvmx2yjtG5VCDmpqaThkbHX0YQMUPghaRfQr8eywWu6G3t/cXIqKVzklEdChNTU11xdHRdxqRP4DqpSj3kH4SEbk5l8+vPeT7hxvsed471Jj/hd0P3ntaRDohsg3ADhF52vH9AROLcc+ViMoxzxjTAKARwHIB3gLgDFW19+wQkd54PH56b2/vc4fc5EhzeJ73ETXmn60VRUQ0swwkRFb35PO/PNxGR9z1HRgYuG/hggXHKLDKXm1ERNEnImPiOGv68vl7j7TtUR2+9+Vyn4DIdZWXRkQ0M4hIQRznd3O53J1Hs/1RhamIaD6fXw+RL1dWHhHRjDDoqF6azWZvPNoBgTpcAwMDP13Q0PA8gPNhtylFRBQVTzqx2EXZfP7/ggw6YgNqKqlU6lw15j9UtaJrtoiIokRE7krU1Pxud3f33qBjy9q7zGazd9fPm3e6iNxazngioigRkTGItK9bv/68coIUKHPPdLJUMnmZinxVVRsrnYuIaLqJyJYE8Kfd+fzjlcxT8V0BL7z44uNLliy5dnhkZFiA1wOYV+mcRETVJiLbxHH+LJfPf3L/wMAzFc9no6gJK1euPObZZ5+9Wo35MwBNNucmIrJC5GcAvpLL5W6xeWu71TCdoKqSTqfPVt//QwXWqurx1ViHiOhoiMgOAf5LYrEb+vr6dldljWpMOpmqiud5p4vI22HMmQq8RkSWqWpNtdcmorlHRJ6H6k6IPAKRu1V1Sz6f76v6utVeYCptbW2xBx98MI1C4VjfcRpUtUFEGK5EVI4hx5gB4zgD8Xj8qXK78ZX6/64xPAN3qYfkAAAAAElFTkSuQmCC" parent="1" vertex="1">
          <mxGeometry x="340" y="440" width="100" height="130" as="geometry" />
        </mxCell>
        <mxCell id="3KtTvewTF6bU5-9G9vKZ-17" style="rounded=0;orthogonalLoop=1;jettySize=auto;html=1;exitX=0.5;exitY=1;exitDx=0;exitDy=0;entryX=0.5;entryY=0;entryDx=0;entryDy=0;" parent="1" source="3KtTvewTF6bU5-9G9vKZ-2" target="3KtTvewTF6bU5-9G9vKZ-16" edge="1">
          <mxGeometry relative="1" as="geometry">
            <mxPoint x="630" y="330" as="sourcePoint" />
            <mxPoint x="450" y="440" as="targetPoint" />
          </mxGeometry>
        </mxCell>
      </root>
    </mxGraphModel>
  </diagram>
</mxfile>
